<?xml version="1.0" encoding="iso-8859-1"?>
<!-- Generator: Adobe Illustrator 19.0.0, SVG Export Plug-In . SVG Version: 6.00 Build 0)  -->
<svg version="1.1" id="Layer_1" xmlns="http://www.w3.org/2000/svg" xmlns:xlink="http://www.w3.org/1999/xlink" x="0px" y="0px"
	 viewBox="0 0 512.001 512.001" style="enable-background:new 0 0 512.001 512.001;" xml:space="preserve">
<g>
	<g>
		<path d="M157.628,300.092c11.374-28.434,11.374-59.751,0-88.186c-9.867-24.667-9.867-51.836,0-76.502
			c11.373-28.434,11.373-59.753-0.001-88.184l-12.926-32.317c-3.352-8.383-11.352-13.799-20.381-13.799H22.915
			c-7.294,0-14.089,3.606-18.177,9.645C0.65,16.79-0.174,24.438,2.534,31.208l8.742,21.853c9.867,24.667,9.867,51.835,0,76.502
			c-11.373,28.434-11.373,59.752,0,88.186c9.867,24.667,9.867,51.835,0,76.502c-11.373,28.434-11.373,59.752,0,88.186
			c9.867,24.667,9.867,51.835,0,76.502l-9.847,24.616c-2.46,6.15-1.712,13.095,2.002,18.581c3.714,5.485,9.884,8.759,16.508,8.759
			h105.746c8.199,0,15.466-4.919,18.51-12.533l13.434-33.582c11.374-28.434,11.374-59.752,0-88.186
			C147.761,351.927,147.761,324.759,157.628,300.092z M29.722,495.165H19.94c-1.943,0-3.018-1.159-3.485-1.849
			c-0.468-0.691-1.144-2.118-0.423-3.923l9.847-24.616c2.488-6.219,4.431-12.577,5.831-19.011h10.678v-15.728h-8.359
			c1.435-18.02-1.276-36.259-8.15-53.446c-9.867-24.667-9.867-51.835,0-76.502c11.373-28.434,11.373-59.751,0-88.185
			c-2.862-7.156-4.867-14.525-6.069-21.98h6.85v-15.728h-8.168c-0.07-13.139,2.384-26.288,7.387-38.794
			c9.84-24.602,11.16-51.361,3.972-76.545h5.198V43.131H24.244l-7.106-17.765c-1.107-2.767,0.068-4.977,0.625-5.799
			c0.557-0.822,2.174-2.735,5.154-2.735h6.806l14.492,36.229c9.867,24.667,9.867,51.836,0,76.502
			c-11.373,28.434-11.373,59.752,0,88.185c9.867,24.667,9.867,51.836,0,76.502c-0.626,1.565-1.212,3.141-1.769,4.723h-7.396V314.7
			h3.039c-4.611,22.544-2.574,45.983,6.127,67.734c9.867,24.667,9.867,51.835,0,76.502L29.722,495.165z M62.965,495.165H46.661
			l12.155-30.386c10.959-27.399,11.354-57.475,1.191-85.068h8.594v-15.728H54.707c-5.454-21.108-4.101-43.364,4.109-63.89
			c6.754-16.884,9.497-34.786,8.23-52.497h8.895v-15.728h-11.1c-1.412-6.759-3.416-13.436-6.026-19.961
			c-6.999-17.499-9.007-36.254-6.075-54.485h7.472v-15.728h-3.654c0.691-2.11,1.426-4.211,2.257-6.289
			c11.373-28.434,11.373-59.751,0-88.185L46.66,16.833h16.305l14.492,36.229c9.867,24.667,9.867,51.835,0,76.502
			c-11.374,28.434-11.374,59.752,0,88.185c9.867,24.667,9.867,51.835,0,76.502c-11.374,28.434-11.374,59.751,0,88.185
			c9.867,24.667,9.867,51.835,0,76.502L62.965,495.165z M95.596,495.165H79.904l12.155-30.386c11.373-28.434,11.373-59.751,0-88.185
			c-9.867-24.667-9.867-51.835,0-76.502c11.373-28.434,11.373-59.751,0-88.185c-9.867-24.667-9.867-51.835,0-76.502
			c11.373-28.434,11.373-59.752,0-88.186L79.904,16.832h15.692l14.492,36.229c7.076,17.69,9.048,36.662,5.976,55.079h-14.958v15.728
			h11.049c-0.639,1.91-1.314,3.811-2.067,5.695c-11.373,28.434-11.373,59.752,0,88.185c9.867,24.667,9.867,51.835,0,76.502
			c-5.747,14.367-8.585,29.471-8.525,44.567h-8.846v15.728h9.966c1.314,9.465,3.779,18.824,7.405,27.89
			c9.867,24.667,9.867,51.835,0,76.502L95.596,495.165z M143.025,458.937l-4.798,11.995h-13.006v15.728h6.715l-2.344,5.86
			c-0.643,1.607-2.176,2.644-3.907,2.644h-13.15l12.155-30.386c11.373-28.434,11.373-59.751,0-88.185
			c-9.867-24.667-9.867-51.835,0-76.502c1.528-3.82,2.844-7.694,3.961-11.604h13.346v-15.728h-9.976
			c2.931-20.398,0.488-41.307-7.331-60.854c-9.867-24.667-9.867-51.835,0-76.502c11.373-28.434,11.373-59.752,0-88.185
			l-12.155-30.386h11.784c2.56,0,4.827,1.535,5.778,3.911l12.31,30.775h-7.75v15.728h12.894c4.987,20.638,3.48,42.301-4.526,62.316
			c-11.373,28.434-11.373,59.752,0,88.185c9.867,24.667,9.867,51.835,0,76.502c-11.373,28.434-11.373,59.751,0,88.185
			C152.892,407.102,152.892,434.27,143.025,458.937z"/>
	</g>
</g>
<g>
	<g>
		<path d="M330.549,211.908c-9.867-24.667-9.867-51.835,0-76.502c11.374-28.435,11.374-59.753,0-88.186l-12.926-32.317
			c-3.353-8.382-11.353-13.799-20.381-13.799H195.836c-7.294,0-14.088,3.605-18.176,9.644c-4.088,6.039-4.913,13.686-2.204,20.459
			l8.742,21.853c9.867,24.667,9.867,51.836,0,76.502c-11.373,28.434-11.373,59.752,0,88.186c9.867,24.667,9.867,51.836,0,76.502
			c-11.373,28.434-11.373,59.752,0,88.186c9.867,24.667,9.867,51.835,0,76.502l-9.847,24.617c-2.46,6.15-1.711,13.096,2.002,18.581
			c3.714,5.484,9.885,8.759,16.508,8.759h105.745c8.199,0,15.465-4.919,18.51-12.532l13.434-33.583
			c11.373-28.434,11.373-59.752,0-88.186c-9.867-24.667-9.867-51.835,0-76.502C341.922,271.659,341.922,240.342,330.549,211.908z
			 M198.8,135.405c4.616-11.538,7.358-23.55,8.227-35.652h9.417V84.025h-9.348c-0.775-12.491-3.535-24.9-8.296-36.804l-8.742-21.852
			c-1.106-2.767,0.068-4.978,0.625-5.8c0.557-0.822,2.173-2.734,5.154-2.734h6.806l14.492,36.229
			c9.867,24.667,9.867,51.835,0,76.502c-11.373,28.434-11.373,59.751,0,88.185c9.867,24.667,9.867,51.835,0,76.502
			c-0.238,0.594-0.463,1.191-0.691,1.788v-14.89h-11.828c5.017-23.005,3.08-47.006-5.816-69.242
			C188.933,187.24,188.933,160.07,198.8,135.405z M202.642,495.166h-9.783c-1.942-0.001-3.016-1.16-3.483-1.85
			c-0.468-0.691-1.144-2.119-0.423-3.921l9.847-24.616c1.537-3.843,2.858-7.738,3.98-11.671h13.663v-15.728h-10.304
			c2.916-20.377,0.47-41.262-7.341-60.785c-9.867-24.667-9.867-51.836,0-76.502c0.427-1.067,0.833-2.14,1.228-3.216h16.093
			c-10.348,27.727-10.01,57.998,1.014,85.559c9.867,24.667,9.867,51.835,0,76.502L202.642,495.166z M235.557,495.168h-15.975
			l12.156-30.39c9.858-24.646,11.165-51.458,3.933-76.68h5.938V372.37h-11.446c-8.251-23.52-7.733-49.011,1.574-72.278
			c3.556-8.887,5.999-18.057,7.331-27.332h9.879v-15.728h-8.693c0.134-15.281-2.7-30.58-8.518-45.126
			c-9.035-22.589-9.77-47.271-2.256-70.213h12.128v-15.728h-6.552c7.91-25.821,6.809-53.426-3.319-78.746l-12.155-30.386h15.975
			l14.492,36.229c9.867,24.667,9.867,51.835,0,76.502c-11.373,28.434-11.373,59.751,0,88.185c9.867,24.667,9.867,51.835,0,76.502
			c-11.373,28.434-11.373,59.751,0,88.185c9.867,24.667,9.867,51.835,0,76.502L235.557,495.168z M268.518,495.166h-16.02
			l12.155-30.386c11.373-28.434,11.373-59.752,0-88.186c-9.867-24.667-9.867-51.835,0-76.502c11.373-28.434,11.373-59.751,0-88.186
			c-9.867-24.667-9.867-51.835,0-76.502c11.373-28.434,11.373-59.752,0-88.185l-12.155-30.386h16.02l14.492,36.228
			c9.867,24.667,9.867,51.835,0,76.502c-11.373,28.434-11.373,59.752,0,88.185c1.852,4.629,3.355,9.347,4.512,14.118h-6.069v15.728
			h8.587c1.298,15.727-1.03,31.653-7.031,46.655c-11.373,28.434-11.373,59.751,0,88.185c3.991,9.977,6.338,20.364,7.101,30.828
			h-8.658v15.728h8.595c-0.829,10.165-3.159,20.25-7.038,29.947L268.518,495.166z M315.948,294.25
			c-4.815,12.038-7.584,24.593-8.321,37.227h-8.347v15.728h8.477c0.903,11.96,3.63,23.827,8.191,35.23
			c9.867,24.667,9.867,51.835,0,76.502l-13.434,33.583c-0.643,1.607-2.177,2.645-3.908,2.645h-13.149l12.155-30.386
			c11.374-28.434,11.374-59.751,0-88.185c-9.867-24.667-9.867-51.835,0-76.502c11.374-28.434,11.374-59.751,0-88.185
			c-9.867-24.667-9.867-51.836,0-76.502c7.68-19.201,10.165-39.714,7.474-59.768h9.919V59.908h-13.128
			c-1.18-4.279-2.596-8.515-4.265-12.688l-12.155-30.387h11.784c2.559,0,4.827,1.535,5.777,3.911l12.927,32.317
			c9.866,24.668,9.866,51.836,0,76.503c-5.755,14.389-8.594,29.516-8.523,44.635h-8.145v15.728h9.273
			c1.316,9.442,3.778,18.778,7.396,27.823C325.814,242.415,325.814,269.583,315.948,294.25z"/>
	</g>
</g>
<g>
	<g>
		<path d="M503.47,300.093c11.374-28.436,11.374-59.754,0-88.187c-9.867-24.667-9.867-51.835,0-76.502
			c11.373-28.434,11.373-59.751,0-88.185l-12.926-32.316c-3.352-8.383-11.352-13.799-20.381-13.799H368.758
			c-7.294,0-14.089,3.606-18.177,9.645c-4.088,6.039-4.912,13.687-2.204,20.458l8.742,21.853c9.867,24.667,9.867,51.835,0,76.502
			c-11.373,28.434-11.373,59.751,0,88.185c9.867,24.667,9.867,51.835,0,76.502c-11.373,28.434-11.373,59.752,0,88.186
			c9.867,24.667,9.867,51.835,0,76.502l-9.847,24.617c-2.46,6.15-1.711,13.096,2.002,18.581c3.714,5.484,9.885,8.759,16.508,8.759
			h105.745c8.199,0,15.465-4.919,18.51-12.532l13.434-33.583c11.373-28.434,11.373-59.752,0-88.186
			C493.603,351.928,493.603,324.76,503.47,300.093z M375.565,495.166h-9.783c-1.944-0.001-3.018-1.16-3.485-1.85
			c-0.468-0.691-1.144-2.119-0.423-3.923l9.847-24.616c10.959-27.399,11.353-57.474,1.192-85.068h8.15v-15.728h-13.451
			c-5.454-21.108-4.102-43.363,4.109-63.89c3.556-8.887,5.999-18.057,7.331-27.332h10.399v-15.728h-9.212
			c0.134-15.281-2.7-30.58-8.518-45.126c-9.867-24.667-9.867-51.835,0-76.502c7.68-19.201,10.167-39.714,7.474-59.768h10.256V59.908
			h-13.464c-1.18-4.279-2.596-8.515-4.265-12.688l-8.742-21.853c-1.107-2.767,0.068-4.977,0.625-5.799
			c0.557-0.822,2.174-2.735,5.154-2.735h6.806l14.492,36.229c9.867,24.667,9.867,51.835,0,76.502
			c-11.373,28.434-11.373,59.751,0,88.185c9.867,24.667,9.867,51.835,0,76.502c-11.373,28.434-11.373,59.751,0,88.185
			c9.867,24.667,9.867,51.835,0,76.502L375.565,495.166z M408.479,495.167h-15.975l12.155-30.386
			c6.629-16.576,9.386-34.128,8.287-51.518h9.009v-15.728h-11.07c-1.42-7.093-3.491-14.102-6.226-20.941
			c-9.867-24.667-9.867-51.835,0-76.502c6.754-16.884,9.498-34.786,8.23-52.497h9.068v-15.728h-11.272
			c-1.412-6.759-3.416-13.436-6.026-19.961c-3.932-9.831-6.27-20.06-7.068-30.369h8.637v-15.728h-8.64
			c0.795-10.321,3.134-20.563,7.07-30.405c4.616-11.538,7.357-23.55,8.227-35.652h9.071V84.024h-9.001
			c-0.775-12.491-3.535-24.901-8.296-36.804l-12.155-30.386h15.975l14.492,36.229c9.867,24.667,9.867,51.835,0,76.502
			c-11.374,28.434-11.374,59.752,0,88.186c9.867,24.667,9.867,51.835,0,76.502c-11.374,28.434-11.374,59.752,0,88.186
			c9.867,24.667,9.867,51.835,0,76.502L408.479,495.167z M441.441,495.165h-16.02l12.155-30.386
			c11.373-28.434,11.373-59.751,0-88.185c-9.867-24.667-9.867-51.835,0-76.502c11.373-28.434,11.373-59.751,0-88.185
			c-9.867-24.667-9.867-51.835,0-76.502c11.373-28.434,11.373-59.751,0-88.185L425.42,16.832h16.02l14.49,36.229
			c7.076,17.69,9.048,36.662,5.976,55.079h-7.446v15.728h3.538c-0.639,1.91-1.314,3.811-2.067,5.695
			c-6.821,17.052-9.546,35.14-8.186,53.023h-9.012v15.728h11.281c1.406,6.578,3.375,13.079,5.918,19.435
			c9.867,24.667,9.867,51.835,0,76.502c-10.046,25.115-11.212,52.48-3.51,78.12h-6.348v15.728h11.915
			c7.733,23.118,7.061,48.045-2.057,70.839L441.441,495.165z M488.868,458.937l-1.862,4.655h-14.72v15.728h8.429l-5.28,13.2
			c-0.643,1.607-2.177,2.645-3.908,2.645h-13.15l12.155-30.386c11.373-28.434,11.373-59.752,0-88.186
			c-9.867-24.667-9.867-51.835,0-76.502c11.373-28.434,11.373-59.751,0-88.186c-9.867-24.667-9.867-51.835,0-76.502
			c11.373-28.434,11.373-59.752,0-88.185l-12.155-30.386h11.784c2.56,0,4.827,1.535,5.778,3.912l8.954,22.387h-5.271V58.86h11.343
			c7.686,23.08,6.999,47.953-2.1,70.703c-4.691,11.727-7.441,23.943-8.263,36.247h-8.32v15.728h8.322
			c0.824,12.291,3.574,24.496,8.261,36.211c9.868,24.666,9.868,51.834,0.002,76.501c-11.373,28.434-11.373,59.751,0,88.185
			C498.735,407.102,498.735,434.27,488.868,458.937z"/>
	</g>
</g>
<g>
</g>
<g>
</g>
<g>
</g>
<g>
</g>
<g>
</g>
<g>
</g>
<g>
</g>
<g>
</g>
<g>
</g>
<g>
</g>
<g>
</g>
<g>
</g>
<g>
</g>
<g>
</g>
<g>
</g>
</svg>
