<?xml version="1.0" encoding="iso-8859-1"?>
<!-- Generator: Adobe Illustrator 19.0.0, SVG Export Plug-In . SVG Version: 6.00 Build 0)  -->
<svg version="1.1" id="Layer_1" xmlns="http://www.w3.org/2000/svg" xmlns:xlink="http://www.w3.org/1999/xlink" x="0px" y="0px"
	 viewBox="0 0 512.001 512.001" style="enable-background:new 0 0 512.001 512.001;" xml:space="preserve">
<path style="fill:#B20209;" d="M136.894,495.44l13.434-33.583c10.572-26.43,10.572-55.914,0-82.343l0,0
	c-10.572-26.43-10.572-55.914,0-82.343l0,0c10.572-26.43,10.572-55.914,0-82.343l0,0c-10.572-26.43-10.572-55.914,0-82.343l0,0
	c10.572-26.43,10.572-55.914,0-82.343L137.4,17.824c-2.139-5.349-7.319-8.855-13.079-8.855H22.915
	c-9.966,0-16.781,10.066-13.079,19.319l8.742,21.853c10.572,26.43,10.572,55.914,0,82.343l0,0c-10.572,26.43-10.572,55.914,0,82.343
	l0,0c10.572,26.43,10.572,55.914,0,82.343l0,0c-10.572,26.43-10.572,55.914,0,82.343l0,0c10.572,26.43,10.572,55.914,0,82.343
	l-9.847,24.616c-3.172,7.93,2.669,16.555,11.209,16.555h105.745C130.621,503.029,135.06,500.023,136.894,495.44z"/>
<path style="fill:#D1676B;" d="M103.956,495.44l13.434-33.583c10.572-26.43,10.572-55.914,0-82.343l0,0
	c-10.572-26.43-10.572-55.914,0-82.343l0,0c10.572-26.43,10.572-55.914,0-82.343l0,0c-10.572-26.43-10.572-55.914,0-82.343l0,0
	c10.572-26.43,10.572-55.914,0-82.343l-12.927-32.318c-2.139-5.349-7.319-8.855-13.079-8.855h-35.53
	c-9.966,0-16.781,10.066-13.079,19.319l8.742,21.853c10.572,26.43,10.572,55.914,0,82.343l0,0c-10.572,26.43-10.572,55.914,0,82.343
	l0,0c10.572,26.43,10.572,55.914,0,82.343l0,0c-10.572,26.43-10.572,55.914,0,82.343l0,0c10.572,26.43,10.572,55.914,0,82.343
	l-9.847,24.616c-3.172,7.93,2.669,16.555,11.209,16.555h39.87C97.684,503.029,102.122,500.023,103.956,495.44z"/>
<path style="fill:#B20209;" d="M310.12,495.44l13.434-33.583c10.572-26.43,10.572-55.914,0-82.343l0,0
	c-10.572-26.43-10.572-55.914,0-82.343l0,0c10.572-26.43,10.572-55.914,0-82.343l0,0c-10.572-26.43-10.572-55.914,0-82.343l0,0
	c10.572-26.43,10.572-55.914,0-82.343l-12.927-32.318c-2.139-5.349-7.319-8.855-13.079-8.855H196.142
	c-9.966,0-16.781,10.066-13.079,19.319l8.742,21.853c10.572,26.43,10.572,55.914,0,82.343l0,0c-10.572,26.43-10.572,55.914,0,82.343
	l0,0c10.572,26.43,10.572,55.914,0,82.343l0,0c-10.572,26.43-10.572,55.914,0,82.343l0,0c10.572,26.43,10.572,55.914,0,82.343
	l-9.847,24.616c-3.172,7.93,2.669,16.555,11.209,16.555h105.745C303.848,503.029,308.286,500.023,310.12,495.44z"/>
<path style="fill:#D1676B;" d="M277.183,495.44l13.434-33.583c10.572-26.43,10.572-55.914,0-82.343l0,0
	c-10.572-26.43-10.572-55.914,0-82.343l0,0c10.572-26.43,10.572-55.914,0-82.343l0,0c-10.572-26.43-10.572-55.914,0-82.343l0,0
	c10.572-26.43,10.572-55.914,0-82.343l-12.927-32.318c-2.139-5.349-7.319-8.855-13.079-8.855h-35.53
	c-9.966,0-16.781,10.066-13.079,19.319l8.742,21.853c10.572,26.43,10.572,55.914,0,82.343l0,0c-10.572,26.43-10.572,55.914,0,82.343
	l0,0c10.572,26.43,10.572,55.914,0,82.343l0,0c-10.572,26.43-10.572,55.914,0,82.343l0,0c10.572,26.43,10.572,55.914,0,82.343
	l-9.847,24.616c-3.172,7.93,2.669,16.555,11.209,16.555h39.87C270.91,503.029,275.349,500.023,277.183,495.44z"/>
<g>
	<path style="fill:#FFFFFF;" d="M75.59,505.95l-14.603-5.841l16.469-41.172c9.867-24.667,9.867-51.835,0-76.502
		c-11.374-28.434-11.374-59.751,0-88.185c9.867-24.667,9.867-51.835,0-76.502c-11.374-28.434-11.374-59.751,0-88.186
		c9.867-24.667,9.867-51.835,0-76.502L60.987,11.889L75.59,6.048l16.469,41.172c11.373,28.434,11.373,59.751,0,88.186
		c-9.867,24.667-9.867,51.835,0,76.502c11.373,28.434,11.373,59.751,0,88.185c-9.867,24.667-9.867,51.835,0,76.502
		c11.373,28.434,11.373,59.751,0,88.186L75.59,505.95z"/>
	<path style="fill:#FFFFFF;" d="M248.183,505.95l-14.603-5.841l16.469-41.172c9.867-24.667,9.867-51.835,0-76.502
		c-11.373-28.434-11.373-59.751,0-88.185c9.867-24.667,9.867-51.835,0-76.502c-11.373-28.434-11.373-59.751,0-88.186
		c9.867-24.667,9.867-51.835,0-76.502L233.58,11.889l14.603-5.841l16.469,41.172c11.373,28.434,11.373,59.751,0,88.186
		c-9.867,24.667-9.867,51.835,0,76.502c11.373,28.434,11.373,59.751,0,88.185c-9.867,24.667-9.867,51.835,0,76.502
		c11.373,28.434,11.373,59.751,0,88.186L248.183,505.95z"/>
</g>
<path style="fill:#B20209;" d="M483.041,495.44l13.434-33.583c10.572-26.43,10.572-55.914,0-82.343l0,0
	c-10.572-26.43-10.572-55.914,0-82.343l0,0c10.572-26.43,10.572-55.914,0-82.343l0,0c-10.572-26.43-10.572-55.914,0-82.343l0,0
	c10.572-26.43,10.572-55.914,0-82.343l-12.927-32.318c-2.139-5.349-7.319-8.855-13.079-8.855H369.063
	c-9.966,0-16.781,10.066-13.079,19.319l8.742,21.853c10.572,26.43,10.572,55.914,0,82.343l0,0c-10.572,26.43-10.572,55.914,0,82.343
	l0,0c10.572,26.43,10.572,55.914,0,82.343l0,0c-10.572,26.43-10.572,55.914,0,82.343l0,0c10.572,26.43,10.572,55.914,0,82.343
	l-9.847,24.616c-3.172,7.93,2.669,16.555,11.209,16.555h105.745C476.769,503.029,481.207,500.023,483.041,495.44z"/>
<path style="fill:#D1676B;" d="M450.104,495.44l13.434-33.583c10.572-26.43,10.572-55.914,0-82.343l0,0
	c-10.572-26.43-10.572-55.914,0-82.343l0,0c10.572-26.43,10.572-55.914,0-82.343l0,0c-10.572-26.43-10.572-55.914,0-82.343l0,0
	c10.572-26.43,10.572-55.914,0-82.343L450.61,17.824c-2.139-5.349-7.319-8.855-13.079-8.855H402
	c-9.966,0-16.781,10.066-13.079,19.319l8.742,21.853c10.572,26.43,10.572,55.914,0,82.343l0,0c-10.572,26.43-10.572,55.914,0,82.343
	l0,0c10.572,26.43,10.572,55.914,0,82.343l0,0c-10.572,26.43-10.572,55.914,0,82.343l0,0c10.572,26.43,10.572,55.914,0,82.343
	l-9.847,24.616c-3.172,7.93,2.669,16.555,11.209,16.555h39.87C443.832,503.029,448.27,500.023,450.104,495.44z"/>
<path style="fill:#FFFFFF;" d="M421.105,505.95l-14.603-5.841l16.469-41.172c9.867-24.667,9.867-51.835,0-76.502
	c-11.374-28.434-11.374-59.751,0-88.185c9.867-24.667,9.867-51.835,0-76.502c-11.374-28.434-11.374-59.751,0-88.186
	c9.867-24.667,9.867-51.835,0-76.502l-16.469-41.172l14.603-5.841l16.469,41.172c11.373,28.434,11.373,59.751,0,88.186
	c-9.867,24.667-9.867,51.835,0,76.502c11.373,28.434,11.373,59.751,0,88.185c-9.867,24.667-9.867,51.835,0,76.502
	c11.373,28.434,11.373,59.751,0,88.186L421.105,505.95z"/>
<path d="M157.627,211.907c-9.867-24.667-9.867-51.836,0-76.502c11.373-28.434,11.373-59.751,0-88.184l-12.926-32.317
	c-3.352-8.383-11.352-13.799-20.381-13.799H22.915c-7.294,0-14.089,3.606-18.177,9.645s-4.912,13.688-2.204,20.458l8.742,21.853
	c9.867,24.667,9.867,51.835,0,76.502c-11.373,28.434-11.373,59.751,0,88.185c9.867,24.667,9.867,51.835,0,76.502
	c-11.373,28.434-11.373,59.751,0,88.186c9.867,24.667,9.867,51.835,0,76.502l-9.847,24.616c-2.46,6.15-1.712,13.095,2.002,18.581
	c3.714,5.485,9.884,8.759,16.508,8.759h105.746c8.2,0,15.466-4.919,18.51-12.533l0,0l13.434-33.582
	c11.374-28.434,11.374-59.751,0-88.186c-9.867-24.667-9.867-51.835,0-76.502C169.002,271.657,169.002,240.339,157.627,211.907z
	 M29.722,495.165H19.94c-1.943,0-3.017-1.159-3.484-1.849c-0.468-0.691-1.144-2.118-0.423-3.923l9.847-24.616
	c2.488-6.219,4.431-12.577,5.831-19.011h10.678v-15.728H34.03c1.435-18.02-1.276-36.259-8.15-53.446
	c-9.867-24.667-9.867-51.835,0-76.502c11.373-28.434,11.373-59.751,0-88.186c-2.862-7.156-4.867-14.525-6.069-21.98h6.85v-15.728
	h-8.168c-0.07-13.139,2.384-26.288,7.387-38.793c9.84-24.602,11.159-51.361,3.972-76.545h5.198V43.131H24.244l-7.106-17.765
	c-1.107-2.767,0.068-4.977,0.625-5.799c0.557-0.822,2.174-2.735,5.154-2.735h6.806l14.492,36.229
	c9.867,24.667,9.867,51.836,0,76.502c-11.373,28.434-11.373,59.751,0,88.186c9.867,24.667,9.867,51.836,0,76.502
	c-0.626,1.565-1.212,3.141-1.769,4.723h-7.396V314.7h3.039c-4.611,22.544-2.574,45.983,6.127,67.734
	c9.867,24.667,9.867,51.835,0,76.502L29.722,495.165z M95.596,495.165H46.661l12.155-30.386
	c10.959-27.399,11.353-57.475,1.191-85.068h8.594v-15.728H54.707c-5.454-21.108-4.101-43.364,4.109-63.89
	c6.754-16.884,9.497-34.786,8.23-52.497h8.895v-15.728h-11.1c-1.412-6.759-3.416-13.436-6.026-19.961
	c-6.999-17.499-9.007-36.254-6.075-54.485h7.472v-15.728h-3.654c0.691-2.11,1.426-4.211,2.257-6.289
	c11.373-28.434,11.373-59.751,0-88.186L46.66,16.833h48.935l14.492,36.229c7.075,17.69,9.048,36.662,5.976,55.079h-14.957v15.728
	h11.049c-0.639,1.91-1.314,3.811-2.067,5.695c-11.373,28.434-11.373,59.752,0,88.186c9.867,24.667,9.867,51.835,0,76.502
	c-5.747,14.367-8.585,29.471-8.525,44.567h-8.846v15.728h9.966c1.314,9.465,3.779,18.824,7.405,27.89
	c9.867,24.667,9.867,51.835,0,76.502L95.596,495.165z M143.025,294.25c-11.373,28.434-11.373,59.751,0,88.185
	c9.867,24.667,9.867,51.835,0,76.502l-4.798,11.995h-13.006v15.728h6.715l-2.345,5.86l0,0c-0.643,1.607-2.176,2.644-3.907,2.644
	h-13.15l12.155-30.386c11.373-28.434,11.373-59.751,0-88.185c-9.867-24.667-9.867-51.835,0-76.502
	c1.528-3.82,2.844-7.694,3.961-11.604h13.346v-15.728h-9.976c2.931-20.398,0.488-41.307-7.331-60.854
	c-9.867-24.667-9.867-51.835,0-76.502c11.373-28.434,11.373-59.751,0-88.186l-12.155-30.386h11.784c2.559,0,4.827,1.535,5.778,3.911
	l12.31,30.775h-7.75v15.728h12.894c4.987,20.637,3.479,42.3-4.527,62.315c-11.373,28.434-11.373,59.751,0,88.186
	C152.892,242.415,152.892,269.583,143.025,294.25z"/>
<path d="M330.548,211.907c-9.867-24.667-9.867-51.835,0-76.502c11.373-28.434,11.373-59.751,0-88.184l-12.926-32.317
	c-3.353-8.382-11.353-13.799-20.381-13.799H195.836c-7.294,0-14.088,3.605-18.176,9.644c-4.088,6.038-4.913,13.686-2.204,20.459
	l8.742,21.853c9.867,24.667,9.867,51.836,0,76.502c-11.373,28.434-11.373,59.751,0,88.185c9.867,24.667,9.867,51.836,0,76.502
	c-11.373,28.434-11.373,59.751,0,88.186c9.867,24.667,9.867,51.835,0,76.502l-9.847,24.617c-2.46,6.15-1.711,13.096,2.002,18.581
	c3.714,5.484,9.884,8.759,16.508,8.759h105.745c8.199,0,15.465-4.919,18.51-12.532l13.434-33.583
	c11.373-28.434,11.373-59.751,0-88.186c-9.867-24.667-9.867-51.835,0-76.502C341.923,271.657,341.923,240.339,330.548,211.907z
	 M198.8,135.405c4.616-11.538,7.358-23.55,8.227-35.652h9.417V84.025h-9.348c-0.775-12.491-3.535-24.9-8.296-36.804l-8.742-21.852
	c-1.106-2.767,0.068-4.978,0.625-5.8c0.557-0.822,2.173-2.734,5.154-2.734h6.806l14.492,36.229c9.867,24.667,9.867,51.835,0,76.502
	c-11.373,28.434-11.373,59.751,0,88.186c9.867,24.667,9.867,51.835,0,76.502c-0.238,0.594-0.463,1.191-0.691,1.788v-14.89h-11.828
	c5.017-23.005,3.08-47.006-5.816-69.242C188.933,187.24,188.933,160.07,198.8,135.405z M189.376,493.316
	c-0.468-0.691-1.144-2.119-0.423-3.921l9.847-24.616c1.537-3.843,2.858-7.738,3.98-11.671h13.663v-15.728h-10.304
	c2.916-20.377,0.47-41.262-7.341-60.785c-9.867-24.667-9.867-51.836,0-76.502c0.427-1.067,0.833-2.14,1.228-3.216h16.093
	c-10.348,27.727-10.01,57.998,1.014,85.559c9.867,24.667,9.867,51.835,0,76.502l-14.492,36.229h-9.783
	C190.917,495.165,189.843,494.006,189.376,493.316z M268.517,495.165h-48.936l12.155-30.386c9.858-24.646,11.165-51.458,3.933-76.68
	h5.938V372.37h-11.446c-8.251-23.52-7.733-49.011,1.574-72.278c3.556-8.887,5.999-18.057,7.331-27.332h9.879v-15.728h-8.693
	c0.134-15.281-2.7-30.58-8.518-45.126c-9.035-22.588-9.77-47.271-2.256-70.213h12.128v-15.728h-6.552
	c7.91-25.821,6.809-53.426-3.319-78.746l-12.155-30.386h48.936l14.491,36.229c9.867,24.667,9.867,51.835,0,76.502
	c-11.373,28.434-11.373,59.751,0,88.186c1.852,4.629,3.355,9.347,4.512,14.118h-6.069v15.728h8.587
	c1.298,15.727-1.03,31.653-7.031,46.655c-11.373,28.434-11.373,59.751,0,88.185c3.991,9.977,6.338,20.363,7.101,30.828h-8.658
	v15.728h8.595c-0.829,10.165-3.159,20.25-7.038,29.947L268.517,495.165z M315.947,294.25c-4.815,12.038-7.584,24.593-8.321,37.227
	h-8.347v15.728h8.477c0.903,11.96,3.63,23.827,8.191,35.23c9.867,24.667,9.867,51.835,0,76.502l-13.434,33.583
	c-0.643,1.607-2.177,2.645-3.908,2.645h-13.149l12.155-30.386c11.374-28.434,11.374-59.751,0-88.185
	c-9.867-24.667-9.867-51.835,0-76.502c11.374-28.434,11.374-59.751,0-88.186c-9.867-24.667-9.867-51.836,0-76.502
	c7.681-19.201,10.165-39.714,7.474-59.768h9.919V59.908h-13.128c-1.18-4.279-2.596-8.515-4.265-12.688l-12.155-30.387h11.784
	c2.559,0,4.827,1.535,5.777,3.911l12.927,32.317c9.867,24.667,9.867,51.835,0,76.502c-5.755,14.389-8.594,29.516-8.523,44.635
	h-8.145v15.728h9.273c1.316,9.442,3.778,18.778,7.396,27.823C325.812,242.415,325.812,269.583,315.947,294.25z"/>
<path d="M503.47,211.907c-9.867-24.667-9.867-51.835,0-76.502c11.373-28.434,11.373-59.751,0-88.186l-12.926-32.316
	c-3.352-8.383-11.352-13.799-20.381-13.799H368.758c-7.294,0-14.089,3.606-18.177,9.645c-4.088,6.04-4.912,13.688-2.204,20.458
	l8.742,21.853c9.867,24.667,9.867,51.835,0,76.502c-11.373,28.434-11.373,59.751,0,88.185c9.867,24.667,9.867,51.835,0,76.502
	c-11.373,28.434-11.373,59.751,0,88.186c9.867,24.667,9.867,51.835,0,76.502l-9.847,24.617c-2.46,6.15-1.711,13.096,2.002,18.581
	c3.714,5.484,9.884,8.759,16.508,8.759h105.745c8.199,0,15.465-4.919,18.51-12.532l13.434-33.583
	c11.373-28.434,11.373-59.751,0-88.186c-9.867-24.667-9.867-51.835,0-76.502C514.844,271.657,514.844,240.339,503.47,211.907z
	 M455.931,53.061c7.075,17.69,9.048,36.662,5.976,55.079h-7.446v15.728h3.538c-0.639,1.91-1.314,3.811-2.067,5.695
	c-6.821,17.052-9.546,35.14-8.186,53.023h-9.012v15.728h11.281c1.406,6.578,3.375,13.079,5.918,19.434
	c9.867,24.667,9.867,51.835,0,76.502c-10.046,25.115-11.212,52.48-3.51,78.12h-6.348v15.728h11.915
	c7.733,23.118,7.061,48.045-2.057,70.839l-14.492,36.229h-48.935l12.155-30.386c6.629-16.573,9.386-34.125,8.289-51.515h9.009
	v-15.728h-11.07c-1.42-7.093-3.491-14.102-6.226-20.941c-9.867-24.667-9.867-51.835,0-76.502c6.754-16.884,9.498-34.786,8.23-52.497
	h9.068v-15.728h-11.272c-1.412-6.759-3.416-13.436-6.026-19.961c-3.932-9.831-6.27-20.06-7.068-30.369h8.637V165.81h-8.64
	c0.795-10.321,3.134-20.563,7.07-30.405c4.616-11.538,7.358-23.55,8.227-35.652h9.071V84.025h-9.001
	c-0.775-12.491-3.535-24.9-8.296-36.804l-12.155-30.386h48.935L455.931,53.061z M362.297,493.316
	c-0.468-0.691-1.144-2.119-0.423-3.923l9.847-24.616c10.959-27.399,11.353-57.474,1.192-85.068h8.15v-15.728h-13.451
	c-5.454-21.108-4.102-43.363,4.109-63.89c3.556-8.887,5.999-18.057,7.331-27.332h10.399v-15.728h-9.212
	c0.134-15.281-2.7-30.58-8.518-45.126c-9.867-24.667-9.867-51.835,0-76.502c7.68-19.201,10.167-39.714,7.474-59.768h10.256V59.908
	h-13.464c-1.18-4.279-2.596-8.515-4.265-12.688l-8.742-21.853c-1.107-2.767,0.068-4.977,0.625-5.799
	c0.557-0.822,2.174-2.735,5.154-2.735h6.806l14.492,36.229c9.867,24.667,9.867,51.835,0,76.502
	c-11.373,28.434-11.373,59.751,0,88.186c9.867,24.667,9.867,51.835,0,76.502c-11.373,28.434-11.373,59.751,0,88.185
	c9.867,24.667,9.867,51.835,0,76.502l-14.492,36.229h-9.783C363.838,495.165,362.765,494.006,362.297,493.316z M488.868,294.25
	c-11.373,28.434-11.373,59.751,0,88.185c9.867,24.667,9.867,51.835,0,76.502l-1.862,4.655h-14.72v15.728h8.429l-5.28,13.2
	c-0.643,1.607-2.177,2.645-3.908,2.645h-13.15l12.155-30.386c11.373-28.434,11.373-59.751,0-88.186
	c-9.867-24.667-9.867-51.835,0-76.502c11.373-28.434,11.373-59.751,0-88.186c-9.867-24.667-9.867-51.835,0-76.502
	c11.373-28.434,11.373-59.751,0-88.186l-12.155-30.386h11.784c2.559,0,4.827,1.535,5.778,3.912l8.954,22.387h-5.271V58.86h11.343
	c7.686,23.08,6.999,47.953-2.1,70.703c-4.691,11.727-7.441,23.943-8.263,36.247h-8.32v15.728h8.322
	c0.824,12.291,3.574,24.496,8.261,36.211C498.734,242.415,498.734,269.583,488.868,294.25z"/>
<g>
</g>
<g>
</g>
<g>
</g>
<g>
</g>
<g>
</g>
<g>
</g>
<g>
</g>
<g>
</g>
<g>
</g>
<g>
</g>
<g>
</g>
<g>
</g>
<g>
</g>
<g>
</g>
<g>
</g>
</svg>
