<?xml version="1.0" encoding="iso-8859-1"?>
<!-- Generator: Adobe Illustrator 19.0.0, SVG Export Plug-In . SVG Version: 6.00 Build 0)  -->
<svg version="1.1" id="Layer_1" xmlns="http://www.w3.org/2000/svg" xmlns:xlink="http://www.w3.org/1999/xlink" x="0px" y="0px"
	 viewBox="0 0 512 512" style="enable-background:new 0 0 512 512;" xml:space="preserve">
<path style="fill:#FBF4CC;" d="M51.2,51.2L51.2,51.2c0,7.541-6.113,13.653-13.653,13.653l0,0c-15.081,0-27.307,12.225-27.307,27.307
	l0,0c0,15.081,12.225,27.307,27.307,27.307h27.307c37.702,0,68.267-30.564,68.267-68.267l0,0c0-22.622-18.338-40.96-40.96-40.96l0,0
	C69.538,10.24,51.2,28.578,51.2,51.2z"/>
<path style="fill:#F6E27D;" d="M92.16,10.24c-4.788,0-9.381,0.83-13.653,2.34c15.906,5.624,27.307,20.787,27.307,38.62l0,0
	c0,37.702-30.564,68.267-68.267,68.267h27.307c37.702,0,68.267-30.564,68.267-68.267l0,0C133.12,28.578,114.782,10.24,92.16,10.24z"
	/>
<path style="fill:#EDEDED;" d="M119.467,461.991v-55.804H64.853v55.804C56.904,464.805,51.2,472.367,51.2,481.28
	c0,11.31,9.17,20.48,20.48,20.48s20.48-9.17,20.48-20.48c0-2.398,0-2.398,0,0c0,11.31,9.17,20.48,20.48,20.48
	s20.48-9.17,20.48-20.48C133.12,472.367,127.416,464.805,119.467,461.991z"/>
<path style="fill:#D8D8DA;" d="M119.467,461.991v-55.804h-13.653v55.804c7.949,2.814,13.653,10.377,13.653,19.289
	s-5.704,16.475-13.653,19.289c2.138,0.756,4.429,1.191,6.827,1.191c11.31,0,20.48-9.17,20.48-20.48
	C133.12,472.367,127.416,464.805,119.467,461.991z"/>
<path style="fill:#EDEDED;" d="M447.147,461.991v-55.804h-54.613v55.804c-7.949,2.814-13.653,10.377-13.653,19.289
	c0,11.31,9.17,20.48,20.48,20.48c11.31,0,20.48-9.17,20.48-20.48c0-2.398,0-2.398,0,0c0,11.31,9.17,20.48,20.48,20.48
	c11.31,0,20.48-9.17,20.48-20.48C460.8,472.367,455.096,464.805,447.147,461.991z"/>
<path style="fill:#D8D8DA;" d="M447.147,461.991v-55.804h-13.653v55.804c7.949,2.814,13.653,10.377,13.653,19.289
	s-5.704,16.475-13.653,19.289c2.138,0.756,4.429,1.191,6.827,1.191c11.31,0,20.48-9.17,20.48-20.48
	C460.8,472.367,455.096,464.805,447.147,461.991z"/>
<path style="fill:#F6E27D;" d="M460.8,51.2L460.8,51.2c0,7.541,6.113,13.653,13.653,13.653l0,0
	c15.081,0,27.307,12.225,27.307,27.307l0,0c0,15.081-12.225,27.307-27.307,27.307h-27.307c-37.702,0-68.267-30.564-68.267-68.267
	l0,0c0-22.622,18.338-40.96,40.96-40.96l0,0C442.462,10.24,460.8,28.578,460.8,51.2z"/>
<path style="fill:#EFC27B;" d="M474.453,64.853c-7.541,0-13.653-6.113-13.653-13.653l0,0c0-22.622-18.338-40.96-40.96-40.96
	c-4.788,0-9.381,0.83-13.653,2.34c15.908,5.624,27.307,20.787,27.307,38.62l0,0c0,7.541,6.113,13.653,13.653,13.653
	c15.081,0,27.307,12.225,27.307,27.307l0,0c0,15.081-12.225,27.307-27.307,27.307h27.307c15.081,0,27.307-12.225,27.307-27.307l0,0
	C501.76,77.079,489.535,64.853,474.453,64.853z"/>
<path style="fill:#F6E27D;" d="M337.92,51.2c-32.634,0-61.906,14.329-81.92,37.018C235.986,65.529,206.714,51.2,174.08,51.2
	c-60.325,0-109.227,68.267-109.227,191.147l68.267,163.84h0.963h39.997c32.634,0,61.906-14.329,81.92-37.018
	c20.014,22.689,49.286,37.018,81.92,37.018h0.001h39.997l69.228-163.84C447.147,119.467,398.243,51.2,337.92,51.2z"/>
<g>
	<path style="fill:#EFC27B;" d="M419.84,242.347h27.307c0-122.88-48.904-191.147-109.227-191.147c-5.039,0-10,0.344-14.856,1.005
		C377.523,61.009,419.84,128.044,419.84,242.347z"/>
	<path style="fill:#EFC27B;" d="M256,307.2c-5.655,0-10.24-4.585-10.24-10.24V160.427c0-5.655,4.585-10.24,10.24-10.24
		c5.657,0,10.24,4.585,10.24,10.24V296.96C266.24,302.615,261.657,307.2,256,307.2z"/>
</g>
<path style="fill:#F8E99B;" d="M337.92,310.613c0,54.613,40.96,54.613,40.96,109.227h81.92c0-54.613,40.96-54.613,40.96-109.227
	c0-45.243-36.677-81.92-81.92-81.92S337.92,265.37,337.92,310.613L337.92,310.613z"/>
<path style="fill:#F6E27D;" d="M419.84,228.693c-4.654,0-9.211,0.408-13.653,1.155c38.741,6.503,68.267,40.176,68.267,80.765
	c0,54.613-40.96,54.613-40.96,109.227H460.8c0-54.613,40.96-54.613,40.96-109.227C501.76,265.37,465.083,228.693,419.84,228.693z"/>
<path style="fill:#FBF4CC;" d="M10.24,310.613c0,54.613,40.96,54.613,40.96,109.227h81.92c0.001-54.613,40.96-54.613,40.96-109.227
	c0-45.243-36.677-81.92-81.92-81.92S10.24,265.37,10.24,310.613L10.24,310.613z"/>
<g>
	<path style="fill:#F8E99B;" d="M92.16,228.693c-4.654,0-9.211,0.408-13.653,1.155c38.741,6.503,68.267,40.176,68.267,80.765
		c0,54.613-40.959,54.613-40.96,109.227h27.307c0.001-54.613,40.96-54.613,40.96-109.227
		C174.08,265.37,137.403,228.693,92.16,228.693z"/>
	<path style="fill:#F8E99B;" d="M160.427,109.227c0-9.411,7.655-17.067,17.067-17.067c9.411,0,17.067,7.655,17.067,17.067
		s-7.655,17.067-17.067,17.067C168.082,126.293,160.427,118.638,160.427,109.227z"/>
	<path style="fill:#F8E99B;" d="M112.64,157.013c0-9.411,7.655-17.067,17.067-17.067s17.067,7.655,17.067,17.067
		s-7.655,17.067-17.067,17.067S112.64,166.425,112.64,157.013z"/>
	<path style="fill:#F8E99B;" d="M174.08,191.147c0-9.411,7.655-17.067,17.067-17.067c9.411,0,17.067,7.655,17.067,17.067
		c0,9.411-7.655,17.067-17.067,17.067C181.735,208.213,174.08,200.558,174.08,191.147z"/>
	<path style="fill:#F8E99B;" d="M303.787,191.147c0-9.411,7.655-17.067,17.067-17.067s17.067,7.655,17.067,17.067
		c0,9.411-7.655,17.067-17.067,17.067S303.787,200.558,303.787,191.147z"/>
	<path style="fill:#F8E99B;" d="M290.133,116.053c0-9.411,7.655-17.067,17.067-17.067c9.411,0,17.067,7.655,17.067,17.067
		s-7.655,17.067-17.067,17.067C297.789,133.12,290.133,125.465,290.133,116.053z"/>
	<path style="fill:#F8E99B;" d="M351.573,150.187c0-9.411,7.655-17.067,17.067-17.067c9.411,0,17.067,7.655,17.067,17.067
		s-7.655,17.067-17.067,17.067C359.229,167.253,351.573,159.598,351.573,150.187z"/>
	<path style="fill:#F8E99B;" d="M187.733,341.333c0-9.411,7.655-17.067,17.067-17.067c9.411,0,17.067,7.655,17.067,17.067
		c0,9.411-7.655,17.067-17.067,17.067C195.389,358.4,187.733,350.745,187.733,341.333z"/>
	<path style="fill:#F8E99B;" d="M283.307,334.507c0-9.411,7.655-17.067,17.067-17.067s17.067,7.655,17.067,17.067
		s-7.655,17.067-17.067,17.067S283.307,343.918,283.307,334.507z"/>
</g>
<g>
	<path style="fill:#F6E27D;" d="M372.053,286.72c0-9.411,7.655-17.067,17.067-17.067s17.067,7.655,17.067,17.067
		s-7.655,17.067-17.067,17.067S372.053,296.131,372.053,286.72z"/>
	<path style="fill:#F6E27D;" d="M413.013,334.507c0-9.411,7.655-17.067,17.067-17.067s17.067,7.655,17.067,17.067
		s-7.655,17.067-17.067,17.067S413.013,343.918,413.013,334.507z"/>
</g>
<g>
	<path style="fill:#F8E99B;" d="M37.547,286.72c0-9.411,7.655-17.067,17.067-17.067s17.067,7.655,17.067,17.067
		s-7.655,17.067-17.067,17.067S37.547,296.131,37.547,286.72z"/>
	<path style="fill:#F8E99B;" d="M78.507,334.507c0-9.411,7.655-17.067,17.067-17.067s17.067,7.655,17.067,17.067
		s-7.655,17.067-17.067,17.067S78.507,343.918,78.507,334.507z"/>
</g>
<path style="fill:#2E2D31;" d="M457.357,226.466c-0.315-53.342-11.899-99.309-33.59-133.02
	c-9.836-15.286-21.453-27.46-34.326-36.226c-0.205-1.996-0.321-4.007-0.321-6.02c0-16.94,13.782-30.72,30.72-30.72
	s30.72,13.78,30.72,30.72c0,13.174,10.719,23.893,23.893,23.893c9.411,0,17.067,7.655,17.067,17.067
	c0,9.411-7.655,17.067-17.067,17.067h-5.916c-5.657,0-10.24,4.585-10.24,10.24c0,5.655,4.583,10.24,10.24,10.24h5.916
	c20.703,0,37.547-16.843,37.547-37.547s-16.844-37.547-37.547-37.547c-1.883,0-3.413-1.532-3.413-3.413
	c0-28.232-22.968-51.2-51.2-51.2c-26.654,0-48.606,20.476-50.977,46.522c-9.881-3.666-20.253-5.562-30.943-5.562
	c-30.552,0-59.841,11.746-81.92,32.548c-22.077-20.802-51.368-32.548-81.92-32.548c-33.582,0-64.068,18.64-85.847,52.486
	c-2.804,4.358-5.435,8.927-7.9,13.683c-5.015,1.384-10.205,2.097-15.48,2.097H37.547c-9.411,0-17.067-7.655-17.067-17.067
	s7.655-17.067,17.067-17.067c13.174,0,23.893-10.719,23.893-23.893c0-16.94,13.78-30.72,30.72-30.72
	c8.341,0,16.146,3.286,21.976,9.254c3.953,4.045,10.435,4.122,14.479,0.169c4.045-3.951,4.122-10.434,0.169-14.479
	C119.071,5.478,106.063,0,92.16,0c-28.232,0-51.2,22.968-51.2,51.2c0,1.881-1.532,3.413-3.413,3.413C16.843,54.613,0,71.456,0,92.16
	s16.843,37.547,37.547,37.547h27.307c1.901,0,3.792-0.082,5.676-0.217c-10.26,27.898-15.67,60.736-15.886,96.977
	C22.479,240.865,0,273.154,0,310.613c0,30.72,11.969,46.678,22.528,60.757c9.89,13.186,18.432,24.576,18.432,48.469
	c0,5.655,4.585,10.24,10.24,10.24h3.413v25.681c-8.383,5.612-13.653,15.135-13.653,25.519c0,16.94,13.78,30.72,30.72,30.72
	c7.86,0,15.042-2.967,20.48-7.841c5.438,4.874,12.62,7.841,20.48,7.841c16.94,0,30.72-13.78,30.72-30.72
	c0-10.385-5.27-19.908-13.653-25.519V430.08h3.413c5.655,0,10.24-4.585,10.24-10.24c0-23.893,8.542-35.282,18.432-48.469
	c10.559-14.081,22.528-30.037,22.528-60.757c0-50.818-41.342-92.16-92.16-92.16c-5.793,0-11.454,0.563-16.953,1.589
	c1.14-46.625,11.534-86.428,30.25-115.515c17.878-27.785,42.249-43.087,68.623-43.087c28.372,0,55.431,12.229,74.241,33.553
	c1.944,2.204,4.74,3.467,7.679,3.467c2.938,0,5.736-1.263,7.679-3.467c18.81-21.324,45.87-33.553,74.241-33.553
	c26.374,0,50.745,15.303,68.624,43.087c18.715,29.087,29.109,68.892,30.249,115.515c-5.5-1.027-11.16-1.589-16.953-1.589
	c-50.818,0-92.16,41.342-92.16,92.16c0,30.72,11.969,46.679,22.528,60.757c5.867,7.823,11.242,15.032,14.66,24.576H337.92
	c-28.372,0-55.431-12.229-74.241-33.553c-1.943-2.204-4.74-3.467-7.679-3.467c-2.938,0-5.736,1.263-7.679,3.467
	c-18.81,21.324-45.87,33.553-74.241,33.553c-5.655,0-10.24,4.585-10.24,10.24c0,5.655,4.585,10.24,10.24,10.24
	c30.552,0,59.843-11.746,81.92-32.548c22.079,20.802,51.368,32.548,81.92,32.548h30.642c0.041,1.117,0.078,2.238,0.078,3.413
	c0,5.655,4.585,10.24,10.24,10.24h3.413v25.681c-8.383,5.612-13.653,15.136-13.653,25.519c0,16.94,13.782,30.72,30.72,30.72
	c7.86,0,15.042-2.967,20.48-7.841c5.438,4.874,12.62,7.841,20.48,7.841c16.938,0,30.72-13.78,30.72-30.72
	c0-10.383-5.27-19.908-13.653-25.519V430.08h3.413c5.655,0,10.24-4.585,10.24-10.24c0-23.893,8.543-35.282,18.432-48.469
	C500.031,357.291,512,341.333,512,310.613C512,273.154,489.522,240.865,457.357,226.466z M116.049,471.642
	c4.086,1.447,6.831,5.319,6.831,9.638c0,5.647-4.593,10.24-10.24,10.24s-10.24-4.593-10.24-10.24v-1.798
	c0-5.655-4.585-10.24-10.24-10.24c-5.655,0-10.24,4.585-10.24,10.24v1.798c0,5.647-4.593,10.24-10.24,10.24
	s-10.24-4.593-10.24-10.24c0-4.317,2.746-8.191,6.831-9.638c4.089-1.449,6.823-5.315,6.823-9.653V430.08h34.133v31.911
	C109.227,466.328,111.96,470.195,116.049,471.642z M163.84,310.613c0,23.893-8.542,35.283-18.432,48.469
	c-9.318,12.426-19.735,26.311-22.054,50.517H60.966c-2.32-24.206-12.736-38.091-22.054-50.517
	c-9.89-13.188-18.432-24.576-18.432-48.469v-0.001c0-39.524,32.156-71.679,71.68-71.679
	C131.685,238.933,163.84,271.088,163.84,310.613z M443.729,471.642c4.085,1.447,6.831,5.319,6.831,9.638
	c0,5.647-4.593,10.24-10.24,10.24c-5.647,0-10.24-4.593-10.24-10.24v-1.798c0-5.655-4.583-10.24-10.24-10.24
	s-10.24,4.585-10.24,10.24v1.798c0,5.647-4.593,10.24-10.24,10.24s-10.24-4.593-10.24-10.24c0-4.317,2.746-8.191,6.831-9.638
	c4.089-1.449,6.823-5.315,6.823-9.653V430.08h34.133v31.911C436.907,466.328,439.64,470.195,443.729,471.642z M473.088,359.083
	c-9.318,12.426-19.735,26.311-22.053,50.517h-62.389c-2.318-24.206-12.734-38.091-22.053-50.517
	c-9.89-13.188-18.432-24.576-18.432-48.469v-0.001c-0.001-39.524,32.155-71.679,71.679-71.679s71.68,32.155,71.68,71.68
	C491.52,334.508,482.978,345.896,473.088,359.083z"/>
<g>
</g>
<g>
</g>
<g>
</g>
<g>
</g>
<g>
</g>
<g>
</g>
<g>
</g>
<g>
</g>
<g>
</g>
<g>
</g>
<g>
</g>
<g>
</g>
<g>
</g>
<g>
</g>
<g>
</g>
</svg>
