<?xml version="1.0" encoding="iso-8859-1"?>
<!-- Generator: Adobe Illustrator 19.0.0, SVG Export Plug-In . SVG Version: 6.00 Build 0)  -->
<svg version="1.1" id="Layer_1" xmlns="http://www.w3.org/2000/svg" xmlns:xlink="http://www.w3.org/1999/xlink" x="0px" y="0px"
	 viewBox="0 0 512.001 512.001" style="enable-background:new 0 0 512.001 512.001;" xml:space="preserve">
<g>
	<g>
		<g>
			<path d="M68.817,258.753c-7.59,0-13.763,6.174-13.763,13.763s6.174,13.763,13.763,13.763s13.763-6.174,13.763-13.763
				S76.407,258.753,68.817,258.753z"/>
			<path d="M445.924,278.022C484.69,261.814,512,223.501,512,178.925c0-4.561-3.697-8.258-8.258-8.258
				c-50.474,0-92.916,35.016-104.33,82.03c-1.197-1.616-6.951-9.002-8.589-10.998c-1.061-31.614-17.253-67.548-42.798-94.596
				c-23.055-24.412-64.423-53.512-130.562-53.512c-49.074,0-98.412,19.852-122.771,49.4c-2.901,3.519-2.4,8.724,1.119,11.625
				c3.52,2.901,8.724,2.399,11.625-1.119c21.395-25.953,65.612-43.39,110.027-43.39c92.774,0,140.136,61.499,153.131,109.135
				c-5.988-6.102-12.222-12.035-18.533-17.606c-33.081-29.197-85.195-64.002-145.608-64.002
				c-99.097,0-176.997,94.406-189.138,110.029C5.825,262.444,0,272.658,0,278.022c0,5.365,5.825,15.578,17.313,30.358
				c12.142,15.623,91.143,110.029,189.138,110.029c60.414,0,112.528-34.805,145.608-64.002c0.623-0.551,1.244-1.11,1.866-1.667
				c11.408,13.948,18.338,30.813,20.032,48.741c-13.508-1.287-26.563-5.574-38.189-12.588c-3.904-2.355-8.98-1.1-11.337,2.804
				c-2.356,3.906-1.1,8.98,2.804,11.337c16.67,10.058,35.822,15.374,55.386,15.374c4.561,0,8.258-3.697,8.258-8.258
				c0-25.363-8.785-49.471-24.891-68.741c10.848-10.668,21.048-22.027,29.6-33.03c1.355-1.743,2.625-3.418,3.822-5.034
				c11.413,47.014,53.856,82.03,104.33,82.03c4.561,0,8.258-3.697,8.258-8.258C512,332.543,484.689,294.23,445.924,278.022z
				 M74.641,344.527c-33.651-29.018-54.361-58.795-57.816-66.505c3.455-7.71,24.165-37.487,57.816-66.505
				c8.279-7.139,17.844-14.65,28.459-21.802c5.886,14.263,18.018,48.48,18.018,88.307c0,39.829-12.133,74.05-18.018,88.307
				C92.485,359.178,82.92,351.666,74.641,344.527z M206.452,401.893c-32.94,0-63.465-11.633-89.16-26.644
				c4.312-9.944,12.948-32.33,17.455-61.08c17.187,7.726,35.922,12.18,54.818,12.951c0.115,0.004,0.229,0.007,0.342,0.007
				c4.405,0,8.064-3.479,8.245-7.921c0.186-4.557-3.357-8.401-7.915-8.587c-18.535-0.756-36.89-5.495-53.408-13.733
				c0.512-6.103,0.804-12.405,0.804-18.864c0-6.463-0.292-12.768-0.805-18.874c47.628-23.777,105.718-16.119,145.636,18.878
				c-16.089,14.138-35.349,24.139-56.172,29.104c-4.436,1.057-7.176,5.511-6.118,9.948c0.904,3.793,4.29,6.346,8.026,6.346
				c0.634,0,1.278-0.074,1.922-0.228c26.56-6.332,50.853-19.934,70.253-39.334c3.225-3.225,3.225-8.454,0-11.678
				c-23.114-23.114-52.409-37.648-84.718-42.032c-27.463-3.725-55.778,0.433-80.912,11.719
				c-4.507-28.747-13.142-51.132-17.454-61.074c25.695-15.012,56.22-26.645,89.16-26.645c107.171,0,185.715,115.797,189.627,123.871
				C392.624,285.732,312.889,401.893,206.452,401.893z M495.073,187.594c-4.106,43.186-38.574,77.654-81.76,81.76
				C417.42,226.168,451.888,191.7,495.073,187.594z M413.314,286.691c43.186,4.106,77.654,38.574,81.76,81.76
				C451.888,364.344,417.42,329.876,413.314,286.691z"/>
		</g>
	</g>
</g>
<g>
</g>
<g>
</g>
<g>
</g>
<g>
</g>
<g>
</g>
<g>
</g>
<g>
</g>
<g>
</g>
<g>
</g>
<g>
</g>
<g>
</g>
<g>
</g>
<g>
</g>
<g>
</g>
<g>
</g>
</svg>
