<?xml version="1.0" encoding="iso-8859-1"?>
<!-- Generator: Adobe Illustrator 19.0.0, SVG Export Plug-In . SVG Version: 6.00 Build 0)  -->
<svg version="1.1" id="Layer_1" xmlns="http://www.w3.org/2000/svg" xmlns:xlink="http://www.w3.org/1999/xlink" x="0px" y="0px"
	 viewBox="0 0 512 512" style="enable-background:new 0 0 512 512;" xml:space="preserve">
<g>
	<g>
		<g>
			<path d="M368.527,90.022h-33.758c-4.661,0-8.44,3.779-8.44,8.44s3.779,8.44,8.44,8.44h33.758
				c69.804,0,126.593,56.789,126.593,126.593v101.275c0,38.779-31.55,70.33-70.33,70.33h-72.293
				c21.639-15.884,35.722-41.489,35.722-70.33V233.495c0-79.111-64.361-143.473-143.473-143.473s-143.473,64.361-143.473,143.473
				c0,7.757-6.309,14.066-14.066,14.066C39.121,247.56,0,286.682,0,334.769c0,48.088,39.121,87.209,87.209,87.209h337.582
				c48.086,0,87.209-39.122,87.209-87.209V233.495C512,154.383,447.639,90.022,368.527,90.022z M301.011,405.099H87.209
				c-38.779,0-70.33-31.55-70.33-70.33s31.55-70.33,70.33-70.33c17.064,0,30.945-13.881,30.945-30.945
				c0-69.804,56.789-126.593,126.593-126.593s126.593,56.789,126.593,126.593v101.275
				C371.341,373.548,339.79,405.099,301.011,405.099z"/>
			<path d="M275.692,233.495c0-17.064-13.881-30.945-30.945-30.945s-30.945,13.881-30.945,30.945s13.881,30.945,30.945,30.945
				S275.692,250.558,275.692,233.495z M230.681,233.495c0-7.757,6.309-14.066,14.066-14.066s14.066,6.309,14.066,14.066
				s-6.309,14.066-14.066,14.066S230.681,241.251,230.681,233.495z"/>
			<path d="M244.747,135.033c-54.292,0-98.462,44.169-98.462,98.462c0,32.576-26.501,59.077-59.077,59.077
				c-23.268,0-42.198,18.929-42.198,42.198s18.929,42.198,42.198,42.198h90.022c4.661,0,8.44-3.779,8.44-8.44s-3.779-8.44-8.44-8.44
				H87.209c-13.961,0-25.319-11.357-25.319-25.319s11.357-25.319,25.319-25.319c41.883,0,75.956-34.073,75.956-75.956
				c0-44.985,36.597-81.582,81.582-81.582s81.582,36.597,81.582,81.582v101.275c0,13.961-11.357,25.319-25.319,25.319h-90.022
				c-4.661,0-8.44,3.779-8.44,8.44s3.779,8.44,8.44,8.44h90.022c23.268,0,42.198-18.929,42.198-42.198V233.495
				C343.209,179.202,299.039,135.033,244.747,135.033z"/>
		</g>
	</g>
</g>
<g>
</g>
<g>
</g>
<g>
</g>
<g>
</g>
<g>
</g>
<g>
</g>
<g>
</g>
<g>
</g>
<g>
</g>
<g>
</g>
<g>
</g>
<g>
</g>
<g>
</g>
<g>
</g>
<g>
</g>
</svg>
