<?xml version="1.0" encoding="iso-8859-1"?>
<!-- Generator: Adobe Illustrator 19.0.0, SVG Export Plug-In . SVG Version: 6.00 Build 0)  -->
<svg version="1.1" id="Layer_1" xmlns="http://www.w3.org/2000/svg" xmlns:xlink="http://www.w3.org/1999/xlink" x="0px" y="0px"
	 viewBox="0 0 512 512" style="enable-background:new 0 0 512 512;" xml:space="preserve">
<path style="fill:#9E005D;" d="M320.095,504.189L320.095,504.189c-8.842,0-16.01-7.168-16.01-16.01v-88.055h32.02v88.055
	C336.106,497.021,328.937,504.189,320.095,504.189z"/>
<circle style="fill:#C1272D;" cx="192.011" cy="63.914" r="24.016"/>
<path style="fill:#FF1D25;" d="M192.016,39.899c-4.397,0-8.463,1.267-12.008,3.331c7.148,4.161,12.008,11.817,12.008,20.684
	s-4.859,16.524-12.008,20.684c3.545,2.063,7.611,3.331,12.008,3.331c13.263,0,24.015-10.752,24.015-24.015
	S205.279,39.899,192.016,39.899z"/>
<path style="fill:#2B8838;" d="M212.106,239.309h-40.179c-6.589,0-11.93-5.342-11.93-11.931v-0.154
	c0-6.589,5.342-11.931,11.93-11.931h40.179c6.589,0,11.93,5.342,11.93,11.931v0.154
	C224.036,233.967,218.694,239.309,212.106,239.309z"/>
<path style="fill:#8C6239;" d="M205.095,288.055h-26.157c-10.461,0-18.941-8.481-18.941-18.941v-10.147
	c0-10.461,8.481-18.941,18.941-18.941h26.157c10.461,0,18.941,8.481,18.941,18.941v10.147
	C224.036,279.574,215.555,288.055,205.095,288.055z"/>
<path style="fill:#39B54A;" d="M200.021,229.238c0,5.624-4.56,10.297-10.183,10.297h24.015c5.624,0,10.381-4.785,10.381-10.409
	v-3.648c0-5.624-4.756-9.896-10.381-9.896h-24.015c5.624,0,10.183,4.472,10.183,10.097"/>
<path style="fill:#A67C52;" d="M200.021,275.329c0,7.146-5.794,13.155-12.94,13.155h24.015c7.146,0,13.138-6.223,13.138-13.369
	v-22.15c0-7.148-5.99-13.43-13.138-13.43h-24.015c7.146,0,12.94,6.145,12.94,13.292"/>
<path style="fill:#2B8838;" d="M212.029,135.959h-40.025c-6.632,0-12.007-5.376-12.007-12.008l0,0
	c0-6.632,5.376-12.008,12.007-12.008h40.025c6.632,0,12.007,5.376,12.007,12.008l0,0
	C224.036,130.583,218.66,135.959,212.029,135.959z"/>
<path style="fill:#8C6239;" d="M210.185,183.989h-36.339c-7.65,0-13.85-6.201-13.85-13.85v-20.329c0-7.649,6.201-13.85,13.85-13.85
	h36.339c7.65,0,13.85,6.201,13.85,13.85v20.329C224.036,177.788,217.835,183.989,210.185,183.989z"/>
<path style="fill:#39B54A;" d="M200.021,126.011c0,5.624-4.56,10.42-10.183,10.42h24.015c5.624,0,10.381-5.031,10.381-10.655v-3.648
	c0-5.624-4.756-9.65-10.381-9.65h-24.015c5.624,0,10.183,4.411,10.183,10.035"/>
<path style="fill:#A67C52;" d="M200.021,171.224c0,7.146-5.794,13.114-12.94,13.114h24.015c7.146,0,13.138-6.143,13.138-13.289
	v-22.15c0-7.148-5.99-12.468-13.138-12.468h-24.015c7.146,0,12.94,5.645,12.94,12.791"/>
<path style="fill:#F2F2F2;" d="M240.046,311.396c0,27.078-21.504,48.03-48.03,48.03s-48.03-20.952-48.03-48.03H240.046z"/>
<path style="fill:#FFFFFF;" d="M216.031,311.396c0,22.912-15.318,41.453-36.023,46.793c3.845,0.991,7.854,1.406,12.008,1.406
	c26.526,0,48.03-21.121,48.03-48.199H216.031z"/>
<path style="fill:#9E005D;" d="M192.016,504.189L192.016,504.189c-8.842,0-16.01-7.168-16.01-16.01v-88.055h32.02v88.055
	C208.025,497.021,200.858,504.189,192.016,504.189z"/>
<rect x="176.004" y="400.128" style="fill:#FBB03B;" width="32.02" height="24.016"/>
<circle style="fill:#C1272D;" cx="320.1" cy="63.914" r="24.016"/>
<path style="fill:#FF1D25;" d="M320.095,39.899c-4.397,0-8.463,1.267-12.008,3.331c7.148,4.161,12.008,11.817,12.008,20.684
	s-4.859,16.524-12.008,20.684c3.545,2.063,7.611,3.331,12.008,3.331c13.263,0,24.015-10.752,24.015-24.015
	S333.358,39.899,320.095,39.899z"/>
<path style="fill:#2B8838;" d="M340.185,239.309h-40.179c-6.589,0-11.931-5.342-11.931-11.931v-0.154
	c0-6.589,5.342-11.931,11.931-11.931h40.179c6.589,0,11.931,5.342,11.931,11.931v0.154
	C352.116,233.967,346.774,239.309,340.185,239.309z"/>
<path style="fill:#8C6239;" d="M332.067,288.055h-23.942c-11.073,0-20.049-8.976-20.049-20.049v-7.933
	c0-11.073,8.976-20.049,20.049-20.049h23.942c11.073,0,20.049,8.976,20.049,20.049v7.933
	C352.116,279.078,343.14,288.055,332.067,288.055z"/>
<path style="fill:#39B54A;" d="M328.101,229.238c0,5.624-4.56,10.297-10.183,10.297h24.015c5.624,0,10.4-4.785,10.4-10.409v-3.648
	c0-5.624-4.776-9.896-10.4-9.896h-24.015c5.624,0,10.183,4.472,10.183,10.097"/>
<path style="fill:#A67C52;" d="M328.101,275.329c0,7.146-5.794,13.155-12.94,13.155h24.015c7.146,0,13.157-6.223,13.157-13.369
	v-22.15c0-7.148-6.01-13.43-13.157-13.43h-24.015c7.146,0,12.94,6.145,12.94,13.292"/>
<path style="fill:#2B8838;" d="M340.108,135.959h-40.025c-6.632,0-12.008-5.376-12.008-12.008l0,0
	c0-6.632,5.376-12.008,12.008-12.008h40.025c6.632,0,12.008,5.376,12.008,12.008l0,0
	C352.116,130.583,346.74,135.959,340.108,135.959z"/>
<path style="fill:#8C6239;" d="M338.265,183.989h-36.339c-7.649,0-13.85-6.201-13.85-13.85v-20.329c0-7.649,6.201-13.85,13.85-13.85
	h36.339c7.65,0,13.85,6.201,13.85,13.85v20.329C352.116,177.788,345.914,183.989,338.265,183.989z"/>
<path style="fill:#39B54A;" d="M328.101,126.011c0,5.624-4.56,10.42-10.183,10.42h24.015c5.624,0,10.4-5.031,10.4-10.655v-3.648
	c0-5.624-4.776-9.65-10.4-9.65h-24.015c5.624,0,10.183,4.411,10.183,10.035"/>
<path style="fill:#A67C52;" d="M328.101,171.224c0,7.146-5.794,13.114-12.94,13.114h24.015c7.146,0,13.157-6.143,13.157-13.289
	v-22.15c0-7.148-6.01-12.468-13.157-12.468h-24.015c7.146,0,12.94,5.645,12.94,12.791"/>
<path style="fill:#F2F2F2;" d="M368.125,311.396c0,27.078-21.504,48.03-48.03,48.03s-48.03-20.952-48.03-48.03H368.125z"/>
<path style="fill:#FFFFFF;" d="M344.11,311.396c0,22.912-15.318,41.453-36.023,46.793c3.845,0.991,7.854,1.406,12.008,1.406
	c26.526,0,48.03-21.121,48.03-48.199H344.11z"/>
<rect x="304.082" y="400.128" style="fill:#FBB03B;" width="32.02" height="24.016"/>
<path d="M200.28,383.256h-15.622v9.057h-16.463v95.866c0,13.135,10.686,23.821,23.821,23.821c13.134,0,23.82-10.686,23.82-23.821
	v-95.866H200.28V383.256z M200.214,488.179c0,4.521-3.677,8.199-8.198,8.199s-8.199-3.678-8.199-8.199v-55.974h16.398V488.179z
	 M200.214,416.583h-16.398v-8.648h16.398V416.583z"/>
<path d="M200.28,304.105v-8.24h5.772c14.223,0,25.796-11.572,25.796-25.796v-12.06c0-4.689-1.264-9.087-3.46-12.88
	c2.105-1.675,3.46-4.252,3.46-7.145v-21.365c0-5.038-4.099-9.136-9.136-9.136H200.28V191.8h5.772
	c14.223,0,25.796-11.572,25.796-25.796v-12.06c0-4.491-1.156-8.715-3.182-12.396c1.944-1.677,3.182-4.151,3.182-6.914v-21.364
	c0-5.038-4.099-9.136-9.136-9.136H200.28v-9.488c13.554-3.648,23.562-16.041,23.562-30.731s-10.008-27.083-23.562-30.731V0h-15.622
	v32.957C170.646,36.287,160.19,48.9,160.19,63.915s10.456,27.628,24.468,30.958v9.262h-23.337c-5.038,0-9.136,4.098-9.136,9.136
	v21.366c0,2.763,1.237,5.237,3.182,6.914c-2.026,3.682-3.182,7.906-3.182,12.396v12.06c0,14.224,11.572,25.796,25.797,25.796h6.677
	v15.683h-23.337c-5.038,0-9.136,4.099-9.136,9.136v21.365c0,2.892,1.355,5.47,3.46,7.145c-2.195,3.793-3.46,8.19-3.46,12.88v12.06
	c0,14.224,11.572,25.796,25.797,25.796h6.677v8.237h-48.948v7.811c0,28.894,21.089,51.994,48.948,55.393v8.657h15.622v-8.835
	c11.801-1.741,22.771-7.091,31.248-15.501c10.561-10.477,16.659-24.582,16.659-39.714v-7.811H200.28z M175.811,63.914
	c0-8.935,7.269-16.204,16.205-16.204c8.936,0,16.204,7.269,16.204,16.204s-7.268,16.204-16.204,16.204
	C183.08,80.118,175.811,72.849,175.811,63.914z M167.806,119.755h48.418v8.393h-10.174h-28.07h-10.175v-8.393H167.806z
	 M177.98,176.178c-5.61,0-10.175-4.564-10.175-10.174v-12.06c0-5.61,4.565-10.174,10.175-10.174h28.07
	c5.61,0,10.174,4.564,10.174,10.174v12.06c0,5.61-4.564,10.174-10.174,10.174H177.98z M167.806,223.105h48.418v8.393h-48.418
	V223.105z M177.98,280.244c-5.61,0-10.175-4.564-10.175-10.174v-12.06c0-5.61,4.565-10.174,10.175-10.174h28.07
	c5.61,0,10.174,4.564,10.174,10.174v12.06c0,5.61-4.564,10.174-10.174,10.174H177.98z M192.016,352.135
	c-19.873,0-35.952-13.718-39.492-32.408h78.984C227.968,338.417,211.889,352.135,192.016,352.135z"/>
<path d="M327.338,383.256h-15.622v9.057h-15.441v95.866c0,13.135,10.686,23.821,23.821,23.821c13.134,0,23.82-10.686,23.82-23.821
	v-95.866h-16.579V383.256z M328.295,488.179c0,4.521-3.677,8.199-8.198,8.199c-4.521,0-8.199-3.678-8.199-8.199v-55.974h16.398
	V488.179z M328.295,407.935v8.648h-16.398v-8.648H328.295z"/>
<path d="M327.338,304.105v-8.24h6.793c14.223,0,25.796-11.572,25.796-25.796v-12.06c0-4.689-1.264-9.087-3.46-12.88
	c2.105-1.675,3.46-4.252,3.46-7.145v-21.365c0-5.038-4.099-9.136-9.136-9.136h-23.454V191.8h6.793
	c14.223,0,25.796-11.572,25.796-25.796v-12.06c0-4.491-1.156-8.715-3.182-12.396c1.944-1.677,3.182-4.151,3.182-6.914v-21.364
	c0-5.038-4.099-9.136-9.136-9.136h-23.454v-9.235c14.07-3.288,24.584-15.928,24.584-30.984s-10.515-27.697-24.584-30.984V0h-15.622
	v33.216c-13.495,3.689-23.446,16.05-23.446,30.698s9.951,27.01,23.446,30.698v9.521h-22.315c-5.038,0-9.135,4.098-9.135,9.136
	v21.365c0,2.763,1.237,5.237,3.182,6.914c-2.026,3.68-3.182,7.906-3.182,12.395v12.06c0,14.224,11.572,25.796,25.796,25.796h5.655
	v15.683h-22.315c-5.038,0-9.135,4.099-9.135,9.136v21.365c0,2.892,1.355,5.471,3.46,7.145c-2.195,3.793-3.46,8.19-3.46,12.879v12.06
	c0,14.224,11.572,25.796,25.796,25.796h5.655v8.241h-47.907v7.811c0,28.537,20.56,51.429,47.907,55.266v8.784h15.622v-8.701
	c12.193-1.576,23.563-6.98,32.285-15.633c10.561-10.477,16.663-24.582,16.663-39.714v-7.812H327.338z M303.891,63.914
	c0-8.935,7.269-16.204,16.205-16.204c8.936,0,16.204,7.269,16.204,16.204s-7.268,16.204-16.204,16.204
	C311.161,80.118,303.891,72.849,303.891,63.914z M295.887,119.755h48.417v8.393H334.13h-28.069h-10.174V119.755z M295.887,166.004
	v-12.06c0-5.61,4.564-10.174,10.174-10.174h28.07c5.61,0,10.174,4.564,10.174,10.174v12.06c0,5.61-4.564,10.174-10.174,10.174
	h-28.07C300.45,176.178,295.887,171.614,295.887,166.004z M295.887,223.105h48.417v8.393h-48.417V223.105z M306.061,280.244
	c-5.61,0-10.174-4.564-10.174-10.174v-12.06c0-5.61,4.564-10.174,10.174-10.174h28.07c5.61,0,10.174,4.564,10.174,10.174v12.06
	c0,5.61-4.564,10.174-10.174,10.174H306.061z M320.095,352.135c-19.873,0-35.952-13.718-39.492-32.408h78.984
	C356.048,338.417,339.968,352.135,320.095,352.135z"/>
<g>
</g>
<g>
</g>
<g>
</g>
<g>
</g>
<g>
</g>
<g>
</g>
<g>
</g>
<g>
</g>
<g>
</g>
<g>
</g>
<g>
</g>
<g>
</g>
<g>
</g>
<g>
</g>
<g>
</g>
</svg>
