<?xml version="1.0" encoding="iso-8859-1"?>
<!-- Generator: Adobe Illustrator 19.0.0, SVG Export Plug-In . SVG Version: 6.00 Build 0)  -->
<svg version="1.1" id="Layer_1" xmlns="http://www.w3.org/2000/svg" xmlns:xlink="http://www.w3.org/1999/xlink" x="0px" y="0px"
	 viewBox="0 0 512 512" style="enable-background:new 0 0 512 512;" xml:space="preserve">
<g>
	<g>
		<path d="M200.28,392.313v-9.057h-15.622v9.057h-16.463v95.866c0,13.135,10.686,23.821,23.821,23.821
			c13.134,0,23.82-10.686,23.82-23.821v-95.866H200.28z M200.214,488.179c0,4.521-3.677,8.199-8.198,8.199s-8.199-3.678-8.199-8.199
			v-55.974h16.398V488.179z M200.214,416.583h-16.398v-8.648h16.398V416.583z"/>
	</g>
</g>
<g>
	<g>
		<path d="M200.282,304.105v-8.24h5.77c14.223,0,25.796-11.572,25.796-25.796v-12.06c0-4.689-1.264-9.087-3.46-12.88
			c2.105-1.675,3.46-4.252,3.46-7.145v-21.366c0-5.037-4.099-9.136-9.136-9.136H200.28V191.8h5.772
			c14.223,0,25.796-11.572,25.796-25.796v-12.06c0-4.491-1.156-8.715-3.182-12.396c1.944-1.677,3.182-4.151,3.182-6.914v-21.364
			c0-5.038-4.099-9.136-9.136-9.136H200.28v-9.488c13.554-3.648,23.562-16.041,23.562-30.731c0-14.691-10.008-27.083-23.562-30.731
			V0h-15.622v32.957C170.646,36.287,160.19,48.9,160.19,63.915c0,15.016,10.456,27.628,24.468,30.958v9.262h-23.337
			c-5.038,0-9.136,4.098-9.136,9.136v21.365c0,2.763,1.237,5.237,3.182,6.914c-2.026,3.682-3.182,7.906-3.182,12.396v12.06
			c0,14.224,11.572,25.796,25.797,25.796h6.677v15.683h-23.337c-5.038,0-9.136,4.099-9.136,9.136v21.365
			c0,2.892,1.355,5.47,3.46,7.145c-2.195,3.793-3.46,8.19-3.46,12.88v12.06c0,14.224,11.572,25.796,25.797,25.796h6.677v8.237
			h-48.948v7.811c0,28.894,21.09,51.994,48.948,55.393v8.657h15.622v-8.835c11.801-1.741,22.771-7.091,31.248-15.501
			c10.561-10.477,16.659-24.582,16.659-39.714v-7.811H200.282z M175.811,63.914c0-8.935,7.269-16.204,16.205-16.204
			c8.936,0,16.204,7.269,16.204,16.204c0,8.935-7.268,16.204-16.204,16.204C183.08,80.118,175.811,72.849,175.811,63.914z
			 M167.805,119.755h0.001h48.418v8.393h-10.174h-28.07h-10.175V119.755z M177.98,176.178c-5.61,0-10.175-4.564-10.175-10.174
			v-12.06c0-5.61,4.565-10.174,10.175-10.174h28.07c5.61,0,10.174,4.564,10.174,10.174v12.06c0,5.61-4.564,10.174-10.174,10.174
			H177.98z M167.806,223.105h48.418v8.393h-48.418V223.105z M177.98,280.244c-5.61,0-10.175-4.564-10.175-10.174v-12.06
			c0-5.61,4.565-10.174,10.175-10.174h28.07c5.61,0,10.174,4.564,10.174,10.174v12.06c0,5.61-4.564,10.174-10.174,10.174H177.98z
			 M192.016,352.135c-19.873,0-35.952-13.718-39.492-32.408h78.984C227.968,338.417,211.889,352.135,192.016,352.135z"/>
	</g>
</g>
<g>
	<g>
		<path d="M327.338,392.313v-9.057h-15.622v9.057h-15.441v95.866c0,13.135,10.686,23.821,23.821,23.821
			c13.134,0,23.82-10.686,23.82-23.821v-95.866H327.338z M328.295,488.179c0,4.521-3.677,8.199-8.198,8.199
			c-4.521,0-8.199-3.678-8.199-8.199v-55.974h16.398V488.179z M328.295,416.583h-16.398v-8.648h16.398V416.583z"/>
	</g>
</g>
<g>
	<g>
		<path d="M327.338,304.105v-8.24h6.793c14.223,0,25.796-11.572,25.796-25.796v-12.06c0-4.689-1.264-9.087-3.46-12.88
			c2.105-1.675,3.46-4.252,3.46-7.145v-21.366c0-5.037-4.099-9.136-9.136-9.136h-23.454V191.8h6.793
			c14.223,0,25.796-11.572,25.796-25.796v-12.06c0-4.491-1.156-8.715-3.182-12.396c1.944-1.677,3.182-4.151,3.182-6.914v-21.364
			c0-5.038-4.099-9.136-9.136-9.136h-23.454v-9.235c14.07-3.288,24.584-15.928,24.584-30.984c0-15.056-10.515-27.697-24.584-30.984
			V0h-15.622v33.216c-13.495,3.689-23.446,16.05-23.446,30.698c0,14.648,9.951,27.01,23.446,30.698v9.521h-22.315
			c-5.038,0-9.135,4.098-9.135,9.136v21.365c0,2.763,1.237,5.237,3.182,6.914c-2.026,3.68-3.182,7.906-3.182,12.395v12.06
			c0,14.224,11.572,25.796,25.796,25.796h5.655v15.683h-22.315c-5.038,0-9.135,4.099-9.135,9.136v21.365
			c0,2.892,1.355,5.471,3.46,7.145c-2.195,3.793-3.46,8.19-3.46,12.879v12.06c0,14.224,11.572,25.796,25.796,25.796h5.655v8.241
			h-47.907v7.811c0,28.537,20.56,51.429,47.907,55.266v8.784h15.622v-8.701c12.193-1.576,23.563-6.98,32.285-15.633
			c10.561-10.477,16.663-24.582,16.663-39.714v-7.812H327.338z M303.891,63.914c0-8.935,7.269-16.204,16.205-16.204
			c8.936,0,16.204,7.269,16.204,16.204c0,8.935-7.268,16.204-16.204,16.204C311.161,80.118,303.891,72.849,303.891,63.914z
			 M295.887,119.755h48.417v8.393H334.13h-28.069h-10.174V119.755z M306.061,176.178c-5.61,0-10.174-4.564-10.174-10.174v-12.06
			c0-5.61,4.564-10.174,10.174-10.174h28.07c5.61,0,10.174,4.564,10.174,10.174v12.06c0,5.61-4.564,10.174-10.174,10.174H306.061z
			 M295.887,223.105h48.417v8.393h-48.417V223.105z M306.061,280.244c-5.61,0-10.174-4.564-10.174-10.174v-12.06
			c0-5.61,4.564-10.174,10.174-10.174h28.07c5.61,0,10.174,4.564,10.174,10.174v12.06c0,5.61-4.564,10.174-10.174,10.174H306.061z
			 M320.095,352.135c-19.873,0-35.952-13.718-39.492-32.408h78.984C356.048,338.417,339.969,352.135,320.095,352.135z"/>
	</g>
</g>
<g>
</g>
<g>
</g>
<g>
</g>
<g>
</g>
<g>
</g>
<g>
</g>
<g>
</g>
<g>
</g>
<g>
</g>
<g>
</g>
<g>
</g>
<g>
</g>
<g>
</g>
<g>
</g>
<g>
</g>
</svg>
