<?xml version="1.0" encoding="iso-8859-1"?>
<!-- Generator: Adobe Illustrator 19.0.0, SVG Export Plug-In . SVG Version: 6.00 Build 0)  -->
<svg version="1.1" id="Layer_1" xmlns="http://www.w3.org/2000/svg" xmlns:xlink="http://www.w3.org/1999/xlink" x="0px" y="0px"
	 viewBox="0 0 512.001 512.001" style="enable-background:new 0 0 512.001 512.001;" xml:space="preserve">
<path style="fill:#DE2A4E;" d="M185.736,238.064c-50.601,0-91.621,41.02-91.621,91.621s41.02,91.621,91.621,91.621h226.726
	c50.6,0,91.621-41.02,91.621-91.621s-41.02-91.621-91.621-91.621H185.736z"/>
<path style="opacity:0.15;enable-background:new    ;" d="M216.359,316.894h-73.085c-4.374,0-7.918-3.545-7.918-7.918
	s3.544-7.918,7.918-7.918h73.085c4.374,0,7.918,3.545,7.918,7.918S220.732,316.894,216.359,316.894z"/>
<path style="opacity:0.15;enable-background:new    ;" d="M315.58,392.492h-73.085c-4.374,0-7.918-3.545-7.918-7.918
	c0-4.373,3.544-7.918,7.918-7.918h73.085c4.374,0,7.918,3.545,7.918,7.918C323.497,388.947,319.952,392.492,315.58,392.492z"/>
<path style="opacity:0.15;enable-background:new    ;" d="M399.454,284.149h-73.086c-4.374,0-7.918-3.545-7.918-7.918
	s3.544-7.918,7.918-7.918h73.086c4.374,0,7.918,3.545,7.918,7.918S403.827,284.149,399.454,284.149z"/>
<g>
	<path style="opacity:0.15;fill:#FFFFFF;enable-background:new    ;" d="M445.152,325.168h-49.083c-4.374,0-7.918-3.545-7.918-7.918
		s3.544-7.918,7.918-7.918h49.083c4.374,0,7.918,3.545,7.918,7.918S449.524,325.168,445.152,325.168z"/>
	<path style="opacity:0.15;fill:#FFFFFF;enable-background:new    ;" d="M194.471,362.404h-25.064c-4.374,0-7.918-3.545-7.918-7.918
		s3.544-7.918,7.918-7.918h25.064c4.374,0,7.918,3.545,7.918,7.918S198.844,362.404,194.471,362.404z"/>
</g>
<path style="opacity:0.05;enable-background:new    ;" d="M426.919,401.125H200.193c-50.6,0-91.621-41.02-91.621-91.621
	c0-15.434,3.822-29.973,10.562-42.731c-15.509,16.411-25.02,38.551-25.02,62.913c0,50.6,41.02,91.621,91.621,91.621h226.726
	c35.168,0,65.701-19.817,81.06-48.889C476.818,390.092,453.158,401.125,426.919,401.125z"/>
<path style="opacity:0.15;fill:#FFFFFF;enable-background:new    ;" d="M255.026,275.687h-25.064c-4.374,0-7.918-3.545-7.918-7.918
	s3.544-7.918,7.918-7.918h25.064c4.374,0,7.918,3.545,7.918,7.918S259.399,275.687,255.026,275.687z"/>
<path style="opacity:0.15;enable-background:new    ;" d="M349.806,347.735h-25.063c-4.374,0-7.918-3.545-7.918-7.918
	s3.544-7.918,7.918-7.918h25.063c4.374,0,7.918,3.545,7.918,7.918S354.179,347.735,349.806,347.735z"/>
<path style="opacity:0.05;enable-background:new    ;" d="M185.735,238.064c-18.846,0-36.358,5.696-50.922,15.453
	c16.214,25.773,44.891,42.914,77.589,42.914c38.867,0,72.056-24.213,85.371-58.367H185.735z"/>
<circle style="fill:#FF496A;" cx="99.539" cy="236.228" r="91.622"/>
<g style="opacity:0.15;">
	<circle cx="114.445" cy="253.953" r="7.918"/>
	<circle cx="106.528" cy="294.469" r="7.918"/>
	<circle cx="134.725" cy="206.595" r="7.918"/>
	<circle cx="47.273" cy="201.18" r="7.918"/>
	<circle cx="160.008" cy="233.283" r="7.918"/>
	<circle cx="83.694" cy="178.535" r="7.918"/>
	<circle cx="41.467" cy="257.531" r="7.918"/>
</g>
<g style="opacity:0.15;">
	<circle style="fill:#FFFFFF;" cx="56.78" cy="225.365" r="7.918"/>
	<circle style="fill:#FFFFFF;" cx="102.865" cy="230.348" r="7.918"/>
	<circle style="fill:#FFFFFF;" cx="74.076" cy="278.634" r="7.918"/>
	<circle style="fill:#FFFFFF;" cx="149.166" cy="270.717" r="7.918"/>
	<circle style="fill:#FFFFFF;" cx="122.363" cy="178.535" r="7.918"/>
</g>
<path style="opacity:0.1;enable-background:new    ;" d="M139.426,153.724c-6.934,12.898-10.876,27.645-10.876,43.315
	c0,36.303,21.117,67.672,51.734,82.502c6.934-12.898,10.876-27.645,10.876-43.315C191.16,199.923,170.043,168.554,139.426,153.724z"
	/>
<circle style="fill:#FF496A;" cx="234.897" cy="182.315" r="91.622"/>
<g style="opacity:0.15;">
	<circle cx="255.652" cy="165.72" r="7.918"/>
	<circle cx="296.168" cy="173.637" r="7.918"/>
	<circle cx="208.305" cy="145.44" r="7.918"/>
	<circle cx="202.879" cy="232.892" r="7.918"/>
	<circle cx="234.992" cy="120.146" r="7.918"/>
	<circle cx="180.245" cy="196.471" r="7.918"/>
	<circle cx="259.241" cy="238.698" r="7.918"/>
</g>
<g style="opacity:0.15;">
	<circle style="fill:#FFFFFF;" cx="227.075" cy="223.38" r="7.918"/>
	<circle style="fill:#FFFFFF;" cx="232.057" cy="177.3" r="7.918"/>
	<circle style="fill:#FFFFFF;" cx="280.333" cy="206.088" r="7.918"/>
	<circle style="fill:#FFFFFF;" cx="272.416" cy="130.999" r="7.918"/>
	<circle style="fill:#FFFFFF;" cx="180.245" cy="157.802" r="7.918"/>
</g>
<path d="M412.461,230.146h-90.297c7.815-14.203,12.269-30.506,12.269-47.83c0-54.885-44.654-99.539-99.539-99.539
	c-42.17,0-78.295,26.361-92.772,63.469c-13.249-6.273-27.793-9.559-42.584-9.559C44.653,136.688,0,181.34,0,236.227
	c0,50.408,37.667,92.18,86.333,98.661c2.715,52.477,46.263,94.337,99.403,94.337h226.726c54.885,0,99.539-44.653,99.539-99.539
	C512,274.799,467.346,230.146,412.461,230.146z M234.894,98.613c46.155,0,83.704,37.549,83.704,83.704
	c0,46.154-37.549,83.703-83.704,83.703c-46.154,0-83.703-37.549-83.703-83.703C151.191,136.162,188.74,98.613,234.894,98.613z
	 M15.835,236.227c0-46.154,37.549-83.704,83.703-83.704c13.257,0,26.276,3.133,37.986,9.103c-1.418,6.677-2.169,13.598-2.169,20.691
	c0,33.929,17.068,63.943,43.065,81.92c-11.738,33.058-43.383,55.693-78.883,55.693C53.384,319.93,15.835,282.381,15.835,236.227z
	 M412.461,413.388H185.735c-44.126,0-80.362-34.33-83.462-77.681c40.109-1.107,75.664-26.453,90.048-63.43
	c12.915,6.137,27.35,9.577,42.574,9.577c30.692,0,58.181-13.965,76.455-35.873h101.113c46.155,0,83.704,37.549,83.704,83.703
	C496.165,375.839,458.616,413.388,412.461,413.388z"/>
<g>
</g>
<g>
</g>
<g>
</g>
<g>
</g>
<g>
</g>
<g>
</g>
<g>
</g>
<g>
</g>
<g>
</g>
<g>
</g>
<g>
</g>
<g>
</g>
<g>
</g>
<g>
</g>
<g>
</g>
</svg>
