<?xml version="1.0" encoding="iso-8859-1"?>
<!-- Generator: Adobe Illustrator 18.0.0, SVG Export Plug-In . SVG Version: 6.00 Build 0)  -->
<!DOCTYPE svg PUBLIC "-//W3C//DTD SVG 1.1//EN" "http://www.w3.org/Graphics/SVG/1.1/DTD/svg11.dtd">
<svg version="1.1" id="Capa_1" xmlns="http://www.w3.org/2000/svg" xmlns:xlink="http://www.w3.org/1999/xlink" x="0px" y="0px"
	 viewBox="0 0 50.026 50.026" style="enable-background:new 0 0 50.026 50.026;" xml:space="preserve">
<g>
	<path d="M47.511,7.286c-0.162-0.21-0.707-0.776-0.746-0.814c-0.363-0.336-0.756-0.617-1.166-0.855l1.117-2.978
		c0.261-0.695,0.072-1.466-0.479-1.963c-0.553-0.497-1.339-0.604-2.003-0.271l-1.843,0.922l-4.357-1.245
		c-0.749-0.212-1.526,0.063-1.972,0.709c-0.443,0.646-0.426,1.468,0.044,2.093l2.368,3.158c-0.246,0.185-0.486,0.382-0.709,0.606
		c-1.351,1.351-2.035,3.215-1.881,5.121c-0.032,4.966-0.95,10.438-7.312,16.8c-6.352,6.351-11.96,7.277-16.613,7.332
		c-0.534-0.049-1.373,0.005-1.603,0.024c-1.417,0.194-2.698,0.829-3.705,1.836c-0.229,0.229-0.43,0.474-0.618,0.725l-3.161-2.37
		c-0.626-0.472-1.446-0.488-2.093-0.042c-0.645,0.443-0.923,1.217-0.708,1.97l1.245,4.356l-0.922,1.844
		c-0.332,0.664-0.226,1.45,0.271,2.003c0.349,0.387,0.831,0.596,1.328,0.596c0.213,0,0.428-0.038,0.636-0.116l3.004-1.127
		c0.244,0.421,0.533,0.826,0.88,1.2c0,0,0.566,0.545,0.755,0.69c2.101,1.712,4.845,2.526,7.948,2.526
		c7.02,0,15.873-4.169,23.254-11.549C49.114,27.823,53.077,14.117,47.511,7.286z M38.073,2.173l3.844,1.098
		c0.434,0.124,0.892,0.082,1.297-0.119l1.446-0.724l-0.926,2.466c-1.151-0.251-2.352-0.185-3.472,0.198L38.073,2.173z M4.908,43.734
		l-2.489,0.935l0.723-1.446c0.202-0.403,0.244-0.864,0.121-1.295l-1.099-3.845l2.927,2.195c-0.374,1.111-0.436,2.301-0.184,3.448
		C4.906,43.726,4.907,43.731,4.908,43.734z M37.057,37.052C27.129,46.979,14.6,50.883,8.511,45.922
		C8.354,45.8,7.945,45.4,7.943,45.4c-0.383-0.416-0.665-0.886-0.865-1.381L7.063,43.98c-0.449-1.152-0.391-2.461,0.159-3.591
		l0.061-0.125c0.206-0.39,0.454-0.763,0.782-1.091c0.695-0.695,1.582-1.135,2.499-1.263c0.359-0.025,0.979-0.048,1.226-0.019
		l0.065,0.009L11.92,37.9c4.772-0.049,11.139-0.993,18.065-7.919c6.909-6.909,7.87-13.102,7.897-18.247l-0.004-0.094
		c-0.117-1.332,0.356-2.638,1.299-3.58c0.284-0.284,0.604-0.505,0.935-0.698l0.267-0.13c1.129-0.549,2.439-0.606,3.592-0.16
		l0.346,0.135c0.373,0.183,0.732,0.402,1.051,0.695c0.004,0.004,0.433,0.44,0.575,0.626C50.887,14.595,46.984,27.125,37.057,37.052z
		"/>
	<path d="M40.803,15.955c-0.546-0.061-1.042,0.337-1.102,0.887c-0.933,8.606-7.594,17.063-16.577,21.043
		c-0.505,0.224-0.732,0.814-0.509,1.319c0.165,0.373,0.531,0.595,0.915,0.595c0.135,0,0.272-0.027,0.404-0.086
		c9.764-4.326,16.732-13.219,17.755-22.656C41.749,16.507,41.353,16.014,40.803,15.955z"/>
	<path d="M19.838,39.054c-1.316,0.351-2.637,0.548-3.923,0.584c-0.553,0.017-0.987,0.477-0.972,1.028
		c0.016,0.543,0.46,0.972,0.999,0.972c0.01,0,0.02,0,0.029,0c1.441-0.042,2.915-0.261,4.382-0.652
		c0.533-0.142,0.851-0.69,0.708-1.224C20.919,39.228,20.367,38.912,19.838,39.054z"/>
</g>
<g>
</g>
<g>
</g>
<g>
</g>
<g>
</g>
<g>
</g>
<g>
</g>
<g>
</g>
<g>
</g>
<g>
</g>
<g>
</g>
<g>
</g>
<g>
</g>
<g>
</g>
<g>
</g>
<g>
</g>
</svg>
