<?xml version="1.0" encoding="iso-8859-1"?>
<!-- Generator: Adobe Illustrator 19.0.0, SVG Export Plug-In . SVG Version: 6.00 Build 0)  -->
<svg xmlns="http://www.w3.org/2000/svg" xmlns:xlink="http://www.w3.org/1999/xlink" version="1.1" id="Capa_1" x="0px" y="0px" viewBox="0 0 470 470" style="enable-background:new 0 0 470 470;" xml:space="preserve" width="512" height="512">
<g>
	<path style="fill:#66C6FE;" d="M235,136.25l167.5,227.5h30v-30C432.5,224.674,344.076,136.25,235,136.25z"/>
	<path style="fill:#99D9FF;" d="M235,136.25c-109.076,0-197.5,88.424-197.5,197.5v30h365v-30   C402.5,224.674,327.508,136.25,235,136.25z"/>
	<path style="fill:#5CA8D3;" d="M402.5,363.75l-30,30h30c16.569,0,30-13.431,30-30H402.5z"/>
	<path style="fill:#66C6FE;" d="M402.5,363.75h-365c0,16.569,13.431,30,30,30h305C389.069,393.75,402.5,380.319,402.5,363.75z"/>
	<path style="fill:#5CA8D3;" d="M235,76.25l-10,15l10,15h30C265,89.681,251.569,76.25,235,76.25z"/>
	<path style="fill:#66C6FE;" d="M205,106.25h30v-30C218.431,76.25,205,89.681,205,106.25z"/>
	<path d="M462.5,356.25H7.5c-4.143,0-7.5,3.357-7.5,7.5s3.357,7.5,7.5,7.5h23.255c3.484,17.096,18.635,30,36.745,30h335   c18.11,0,33.261-12.904,36.745-30H462.5c4.143,0,7.5-3.357,7.5-7.5S466.643,356.25,462.5,356.25z M402.5,386.25h-335   c-9.777,0-18.114-6.271-21.21-15h377.42C420.614,379.979,412.277,386.25,402.5,386.25z"/>
	<circle cx="144" cy="213.75" r="7.5"/>
	<circle cx="114" cy="243.75" r="7.5"/>
	<path d="M37.5,341.25c4.143,0,7.5-3.357,7.5-7.5c0-104.767,85.233-190,190-190s190,85.233,190,190c0,4.143,3.357,7.5,7.5,7.5   s7.5-3.357,7.5-7.5c0-110.525-87.925-200.886-197.5-204.848V113.75H265c4.143,0,7.5-3.357,7.5-7.5c0-20.678-16.822-37.5-37.5-37.5   s-37.5,16.822-37.5,37.5c0,4.143,3.357,7.5,7.5,7.5s7.5-3.357,7.5-7.5c0-12.406,10.094-22.5,22.5-22.5   c9.778,0,18.119,6.27,21.215,15H235c-4.143,0-7.5,3.357-7.5,7.5v22.652C117.925,132.864,30,223.225,30,333.75   C30,337.893,33.357,341.25,37.5,341.25z"/>
</g>















</svg>
